<?xml version="1.0" encoding="utf-8"?>
<!-- Generator: Adobe Illustrator 25.4.1, SVG Export Plug-In . SVG Version: 6.00 Build 0)  -->
<svg version="1.1" id="Layer_1" xmlns="http://www.w3.org/2000/svg" xmlns:xlink="http://www.w3.org/1999/xlink" x="0px" y="0px"
	 viewBox="0 0 1338 1338" style="enable-background:new 0 0 1338 1338;" xml:space="preserve">
<g>
	<g>
		<path d="M1,1061c4.73-1.91,5.29-6.44,6.22-10.49c1-4.38,4.03-7.63,9.04-7.86c-0.28,3.1-0.55,6.1-0.75,8.23
			c2.38,1.79,4.59,3.45,6.74,5.07c3.06,0,6.59,0,11.34,0c-3.05-5.7-11.57-10.01-5.66-18.72c1.11,1.24,2.72,2.22,2.96,3.46
			c0.69,3.54,3.24,3.83,5.58,3.1c3.22-1,2.66-3.48,1.42-6.05c-0.68-1.42-0.67-3.17-1.07-5.31c1.6,0.13,2.76,0.22,4.27,0.34
			c0.89-8.33-3.49-15.39-6.41-23.78c4.86,0.37,8.72,0.66,13.11,0.99c0.66-4.34,0.88-10.07,5.88-13.7c8.77,8.15,8.77,8.15,7.36,22.85
			c6.16-0.59,11.77-5.03,18.6-3.03c1.72-2.06,1.72-2.06-2.64-10.27c2.5-1.11,4.87-2.55,7.45-3.22c7.05-1.85,9-5.85,5.95-12.29
			c-0.59-1.25-0.03-3.06,0.01-4.61c1.34,0.85,2.7,1.68,4.02,2.55c1.45,0.94,3.33,3.01,4.2,2.64c1.48-0.63,2.98-2.65,3.3-4.31
			c0.68-3.48,1.06-6.58,5.71-6.63c0.77-0.01,1.37-1.99,2.32-2.7c2.36-1.77,4.8-4.57,7.34-4.71c5.02-0.27,4.22,5.13,5.56,8.15
			c1.15,2.6-0.02,4.95-3.13,6.26c-3.01,1.27-3.81,3.45-3.27,7.21c0.63,4.39-0.78,9.07-1.4,14.44c2.24-1.12,3.61-1.8,5.17-2.58
			c4.13,5.91-2.04,6.56-4.29,8.86c-2.53,2.59-5.53,4.73-9.49,8.03c5.24-0.89,9.39-1.6,13.79-2.35c1.18,2.33,3.08,4.61-0.47,7.09
			c-0.53,0.37,0,3.34,0.87,4.47c3.65,4.78,2.03,10.15-3.79,11.72c-2.2,0.59-4.4,1.17-7.34,1.94c6.01,2.09,4.23,5.3,1.98,8.66
			c-0.52,0.77-0.73,1.74-1.08,2.62c-0.41,1.03-0.71,2.91-1.23,2.97c-7.2,0.87-5.08,9.51-9.89,10.99c2.48,3.84,4.54,7.05,7.02,10.89
			c1.45-4.25,2.49-8.14,4.12-11.76c0.81-1.81,2.69-3.14,4.08-4.68c1.99,2.48,6.7,3.04,5.52,7.75c-0.13,0.51-0.49,0.96-1.05,2.01
			c4.57-1.1,5.6-4.66,4.93-7.3c-0.99-3.9-0.21-5.27,3.73-4.88c-1.61-2.36-4.18-4.47-3.98-6.26c0.26-2.29,2.7-4.38,4.3-6.47
			c4.63-6.04,4.65-6.02,8.8-6.54c0.54-2.91-3.59-6.65,1.16-8.94c2.95-1.42,5.92-2.79,9.81-4.61c0.92-1.31,2.63-3.74,4.69-6.68
			c-0.36-2.33-0.09-6.05-4.79-7c-0.7-0.14-0.8-3.22-1.18-4.94c1.64-0.3,3.27-0.61,4.91-0.91c-0.13-0.23-0.26-0.46-0.38-0.69
			c2.03-1.02,4.15-1.9,6.06-3.1c1.62-1.02,3-2.41,4.8-3.88c-1.61-1.28-3.17-1.9-3.49-2.91c-0.49-1.57-0.43-3.49,0.04-5.08
			c0.14-0.49,2.34-0.37,3.59-0.56c1.83-0.27,4.24,0.07,5.38-0.98c3.74-3.44,7.15-7.27,10.37-11.22c0.71-0.87,0.1-2.82,0.1-4.55
			c1.19-0.28,2.42-0.58,3.08-0.73c1.87-4.99,2.62-10.22,8.98-10.85c-0.14-5.94,4.78-14.4,9.53-16.34c-0.22,1.9-0.43,3.65-0.61,5.24
			c4.16,1.11,8.05,2.16,12.76,3.42c-0.67-1.76-1.06-2.89-1.53-3.98c-1.28-2.94-2.11-5.71,1.8-7.41c0.5-0.22,1.24-1.08,1.14-1.3
			c-3.01-6.44,4.09-10.12,4.25-15.71c0.08-2.74,1.61-4.02,4.63-3.8c3.38,0.25,3.71,2.68,3.63,4.89c-0.27,7-0.03,14.06-1.79,20.92
			c-0.31,1.21-1.04,2.31-1.72,3.78c1.49-0.15,2.85-0.29,4.22-0.42c1.21,6.21-3.07,14.64-9.14,17.68c3.35,2.73,1.71,4.91,0.17,6.1
			c-0.21,3.46-0.36,5.98-0.51,8.51c-2.89,2.57-5.78,5.14-8.62,7.67c2.44,1.42,4.32,2.52,5.34,3.11c1.27-3.39,2.55-6.83,3.84-10.27
			c4.99-0.44,3.8,3.87,5.22,7.04c1.56-1.3,2.86-2.69,4.43-3.63c1.45-0.87,3.19-1.25,5.29-2.02c0.89,7.73-6.89,9.94-8.16,16.28
			c1.45-0.35,2.88-0.38,3.98-1.01c2.94-1.68,5.37-5.33,9.44-1.89c0.12,0.1,2.68-2.02,3.36-3.45c0.65-1.38,0.33-3.21,0.49-5.59
			c3.95,0,7.85,0,11.93,0c-0.62-2.61-2.55-6.13-1.82-8.96c0.63-2.45,4.29-4.12,7.24-6.68c0.16-1.1,0.51-3.49,1.01-6.93
			c3.09,2.62,5.15,4.37,8.38,7.11c0.49-3.22,0.89-5.22,1.08-7.24c0.39-4.28,0.43-8.61,1.13-12.84c0.22-1.33,2.07-2.39,3.68-3.12
			c2.33-3.47,2.23-8.87,8.43-9.44c0.68-0.06,1.27-1.68,1.79-2.64c0.92-1.67,1.76-3.38,2.63-5.08c0.24-0.46,0.8-1.04,0.68-1.35
			c-1.93-4.92,3.11-6.06,4.95-8.81c1.24-1.84,4.84,0.26,5.13,3.04c0.14,1.37-0.16,2.79-0.29,4.65c2.84-1.07,5.28-1.99,7.77-2.93
			c-4.64-4.8-5.05-10.51-1.43-16.13c2.09-3.24,4.32-3.33,6.82-0.63c0.78,0.84,1.79,1.85,1.91,2.87c0.52,4.67,3.96,6.82,7.28,9.22
			c1.61,1.17,2.91,2.76,4.93,4.71c3.04-0.6,7.09-1.39,11.77-2.31c-3.95-3.24-8.55-6.09-7.07-11.55c0.97-3.57,0.45-5.56-2.76-6.52
			c1.01-2.65,1.85-5.08,2.88-7.42c0.42-0.94,1.26-1.7,1.91-2.54c0.96,0.91,2.29,1.64,2.79,2.76c1.31,2.93,2.25,6.01,3.82,10.37
			c4.1-9.64,0.7-18.01,1.02-25.54c2.76-1.61,5.44-3.47,8.38-4.79c1.52-0.68,3.47-0.41,5.5-0.6c0.4-6.05,3.08-10.86,8.89-13.69
			c1.77,3.89,3.5,7.54,5.06,11.27c0.26,0.63-0.29,1.57-0.37,2.38c-0.28,2.84-0.51,5.69,0.24,8.58c-1.23,2.92-2.47,5.84-4.13,9.79
			c3.98-1.57,7.26-2.85,11.1-4.36c0.3,3.82-0.67,5.45-3.71,6.68c-3.14,1.27-6.01,3.43-8.6,5.67c-0.8,0.69-0.29,2.9-0.38,4.41
			c1.3-0.15,2.6-0.25,3.89-0.47c0.76-0.13,1.48-0.45,2.77-0.86c0.67,4.99,1.28,9.56,2,14.93c1.95-1.52,3.75-3.4,5.95-4.49
			c1.75-0.87,3.97-0.79,7.15-1.33c-1.13,2.08-1.85,2.78-1.83,3.46c0.19,6.01-3.72,8.33-8.51,10.34c-1.45,0.61-2.17,2.94-2.76,4.64
			c-2.23,1.94-4.82,3.63-6.46,5.99c-0.5,0.72,1.63,3.27,2.82,5.46c-1.22,0.88-5.54,2.01-2.28,5.02c2.03,1.87,5.74,2.02,8.77,2.54
			c0.27,0.05,1.05-2.83,1.92-5.26c1.39-0.68,3.89-1.9,6.39-3.12c0.3-1.79,0.05-4.47,1.22-6.19c1.16-1.72,3.73-2.47,5.39-3.47
			c5.59,6.91-2.09,11.08-2.11,16.64c0,0.85-3.5,2.19-5.47,2.41c-3.45,0.38-5.37,0.81-4.53,5.28c0.26,1.39-3.51,3.52-6.15,5.98
			c0.11,0.51,0.5,2.35,0.95,4.48c-3.56-0.04-7.71-2.05-8.97,3.64c3.63,0.98,6.34,2.57,1.92,6.89c2.46,0.19,4.91,0.37,7.37,0.56
			c0-0.21,0-0.42-0.01-0.63c-1.44-0.24-2.88-0.49-4.32-0.73c0.72-0.85,1.44-1.7,2.16-2.55c1.94-0.33,3.88-0.66,5.82-0.99
			c0.01-0.32,0.01-0.63,0.02-0.95c-1.16-0.35-2.31-0.69-4.14-1.25c3.4-2.09,6.06-4.31,10.06-2.01c-0.29-1.39-0.62-2.99-0.92-4.42
			c3.14-2.67,5.93-5.48,9.17-7.59c1.17-0.76,3.78-0.4,5.04,0.47c0.82,0.56,0.99,3.19,0.44,4.45c-1.09,2.51-2.88,4.72-4.3,6.93
			c1.18,1.57,2.39,3.19,4.13,5.5c-5.43,2.05-10.31,3.9-15.92,6.02c1.04,1.62,1.99,3.1,3.13,4.88c-1.8,1.39-3.72,2.87-6.81,5.26
			c4.34,0,7.4,0,10.47,0c0.26,0.56,0.52,1.12,0.77,1.68c-1.23,0.86-2.5,1.66-3.68,2.58c-3.64,2.88-10.01,1.9-11.35,8.01
			c-0.1,0.46-0.05,0.98,0.05,1.44c0.06,0.3,0.34,0.55,0,0.04c4.04,1.14,7.31,2.52,10.69,2.88c3.48,0.37,7.07-0.24,10.1-0.4
			c4.63-5.92,9.66-12.34,15.22-19.44c5.11,4.09,10.5,8.4,16.46,13.17c-0.68,3.94-4.95,4.23-9.34,5.02c0.88,0.96,1.23,1.43,1.66,1.79
			c1.26,1.04,2.55,2.04,3.83,3.06c-1.73,0.7-3.42,1.8-5.2,1.99c-2.01,0.21-4.1-0.4-6.32,0.1c3.98,1.58,5.19,8.66,11.9,4.24
			c-1.29,5.08-1.83,8.79-6.64,9.58c-0.65,0.11-1.5,1.18-1.63,1.91c-0.66,3.8-4.2,6.04-4.89,10.23c-0.36,2.2-5.64,3.6-9.52,5.83
			c2.98,0.92,5,1.55,7.39,2.29c-0.12,1.06-0.3,2.62-0.48,4.21c-7.29-0.23-12.84,2.85-17.15,8.97c-4.86-4.12-6.61-0.79-8.12,4.53
			c1.99-0.5,3.68-0.79,5.27-1.36c3.16-1.13,6.29-2.34,9.38-3.65c2.88-1.22,5.73-2.54,8.52-3.96c3.33-1.69,6.86-3.17,9.82-5.39
			c3.64-2.72,8.07-4.97,9.02-10.17c0.11-0.63,0.2-1.67,0.54-1.79c3.69-1.26,5.56-4.93,8.54-6.68c3.62-2.13,5.7-5.13,8.21-8.09
			c1.52-1.8,3.89-2.88,5.88-4.29c0.4,0.42,0.8,0.84,1.19,1.26c-0.69,3.95-1.39,7.9-2.13,12.14c-1.29,0.24-2.71,0.5-4.8,0.88
			c2.08,1.14,3.63,1.99,5.18,2.85c0.03,0.47,0.06,0.95,0.08,1.42c-2.96,1.06-5.93,2.11-7.93,2.83c-1.81,2.12-3.14,3.67-4.66,5.44
			c3.02,0.13,6.18,0.28,9.24,0.41c-1.27,2.81-2.58,5.68-4.15,9.14c-1.51,0.21-4.16,0.23-6.53,1.04c-1.2,0.41-2.68,2.25-2.71,3.47
			c-0.08,4.56-0.08,4.75-4.97,4.15c-0.53,3.85,0.16,8.5-5.68,9.07c4.59,1.54,8.77,2.51,12.55,4.32c3.78,1.8,1.93,5.43,0.33,7.17
			c-4.43,4.8-9.38,9.16-14.44,13.31c-0.93,0.77-3.35-0.28-4.09-0.36c-5.14,4.35-10.04,8.47-14.9,12.64
			c-3.64,3.11-7.32,4.72-11.39,0.45c-1.66,1.49-3.21,2.89-5.05,4.54c0.67,0.43,1.26,0.8,1.88,1.2c0,0.29,0.12,0.68-0.02,0.9
			c-0.94,1.42-1.94,2.81-2.93,4.2c1.78,0.22,3.66,0.92,5.32,0.56c4.09-0.89,8.08-2.29,12.11-3.45c2.74-0.79,3.11-0.13,2.37,3.89
			c2.09,0.17,4.23,0.34,5.96,0.48c0.42,2.34,0.71,3.95,1.21,6.76c2.09-3.16,3.35-5.08,4.62-7c0.39,0.28,0.79,0.56,1.18,0.84
			c-1.24,5.77-3.15,11.03-9.57,13.37c-3.89,1.41-7.77,2.9-11.47,4.72c-1.67,0.82-2.88,2.56-4.13,3.73c2.16,1.49,4.03,2.78,5.89,4.07
			c-0.13,0.51-0.25,1.02-0.38,1.53c6.84,0.24,7.38-8.22,11.34-9.39c2.29,0.64,3.3,0.91,4.31,1.2c1.19,0.33,2.39,0.96,3.57,0.95
			c2.16-0.02,4.33-0.41,6.49-0.65c-0.25-1.71-0.18-3.55-0.84-5.08c-0.54-1.28-1.93-2.2-4.04-4.45c2.37-0.13,3.72-0.25,5.07-0.26
			c0.6-0.01,1.27,0.41,1.81,0.28c6.01-1.54,12.15-2.73,17.93-4.91c3.28-1.23,5.9-4.15,8.91-6.18c0.84-0.56,2-0.64,3.01-0.93
			c0.17,0.44,0.35,0.88,0.52,1.32c3-2.91,6.01-5.82,9.46-9.16c0.84,1.36,2.89,3.49,2.47,4.23c-1.15,2.04-0.73,6.43-5.58,4.94
			c-0.76-0.23-3.78,2.96-3.63,4.34c0.68,6.36-3.26,8.41-9.77,9.9c3.02,1.69,4.71,2.63,6.47,3.61c-1.07,2.46-1.98,5.25-3.49,7.66
			c-0.5,0.79-2.54,0.8-3.88,0.84c-1.6,0.05-3.84-0.95-4.66-0.22c-1.39,1.23-1.88,3.47-3.04,5.91c-0.88-1.11-2.28-2.86-3.88-4.87
			c-1.39,1.53-2.33,2.56-3.26,3.58c0.03-0.52,0.07-1.04,0.1-1.55c-6.33-0.74-12.65-1.57-18.99-2.08c-0.71-0.06-1.56,1.73-2.68,3.07
			c2.23,0.94,3.85,1.63,5.98,2.53c-0.86,2.47-1.72,4.96-3,8.63c-4.18-2.05-8.44-4.14-14.03-6.89c3.18,4.18,5.61,7.37,8.94,11.75
			c-0.68,3.43,1.46,7.12,6.3,8.72c-0.33,2.49-0.61,4.64-0.89,6.79c0.79,0.16,1.58,0.31,2.37,0.47c0.62-2.37,1.24-4.75,2.03-7.74
			c5.67-1.04,11.59-3.14,14.28-10.44c0.35,0.42,0.7,0.83,1.05,1.25c-0.34,3.79-0.68,7.58-1.07,11.94c4.02-1.56,7.3-2.83,11.35-4.4
			c0.67,2.39,1.7,4.74,1.71,7.1c0,0.54-3.51,1.09-5.79,1.75c2.28,6.14-3.13,5.13-5.69,5.26c-0.43,3.96-0.77,7.07-1.29,11.78
			c-4.29-2.22-7.95-4.11-11.42-5.91c-1.62,2.1-3.11,4.03-4.71,6.1c1.45,2.51,5.96,4.12,3.58,9.6c-1.54-1.7-2.73-3.01-4.15-4.56
			c-6.58,5.55-3.77-5.76-8.11-4.8c-2.03,3.05,3.87,8.83-3.51,10.07c0.34,1.22,0.69,2.44,1.06,3.77c1.78-0.27,3.49-0.54,6.08-0.94
			c-1.41,1.67-2.29,2.7-3.49,4.13c2.06-0.34,3.67-0.6,6.51-1.06c-1.65,2.3-2.59,3.59-3.42,4.75c2.76,2.02,5.25,3.85,7.29,5.35
			c4.42-1.89,8.82-3.78,13.21-5.66c0.24,0.53,0.48,1.07,0.72,1.6c-2.6,1.62-5.21,3.24-7.81,4.85c0.34,0.48,0.67,0.97,1.01,1.45
			c0.88-0.65,1.76-1.3,2.84-2.09c2.45,4.73,6.39,2.43,8.76,0.77c5.89-4.14,10.2-9.88,13.31-16.49c0.62-1.31,2.23-2.15,3.38-3.2
			c0.47,0.25,0.94,0.51,1.4,0.76c0,3.3,0,6.61,0,9.96c0.33-0.03,1.37-0.12,1.96-0.18c0.66,2.62,1.76,4.94,1.66,7.2
			c-0.1,2.34-0.91,5.31-4.55,4.12c-2.41-0.79-3.5-0.29-3.45,2.33c0.06,3.41,0.52,6.48-4.66,7.33c-2.08,0.34-3.49,4.7-5.24,7.26
			c-1.6,1-3.47,2.16-5.63,3.51c-0.17-1.12-0.36-2.29-0.61-3.9c-1.49,0-3.27-0.43-4.63,0.13c-1.12,0.47-2.47,2.13-2.46,3.25
			c0.03,3.38,0.68,6.75,1.11,10.25c-2.24,2.05-4.62,4.23-7.33,6.72c0.37,3.27,3.12,3.15,5.71,2.76c2.18-0.33,4.33-1.79,6.39-1.61
			c1.89,0.17,3.65,1.85,6.47,3.43c-1.9-5.24-2.72-8.8,2.5-11.19c1.33-0.61,1.14-4.43,1.76-6.75c0.43-1.61,1.05-3.17,1.96-5.85
			c0.99,2.03,1.92,3.04,1.71,3.64c-1.52,4.19-1.01,7.71,2.51,10.73c0.34,0.29-0.49,1.76-0.46,2.67c0.03,1.18,0.14,2.49,0.7,3.47
			c0.27,0.48,1.95,0.77,2.46,0.41c2.34-1.68,4.49-3.62,5.67-4.6c-1.25-3.69-2.57-6.93-3.42-10.28c-1.14-4.45-1.9-8.75,2.75-12.29
			c1.53-1.17,1.52-4.34,2.31-6.91c1.78,1.63,3.06,3.3,4.75,4.22c1.74,0.95,3.87,1.16,6.2,1.35c-4.4-2.43-6.32-5.55-3.68-10.18
			c-1.76-0.32-3.33-0.61-3.99-0.73c-0.55-3.5-0.9-6.31-1.46-9.09c-0.56-2.79,0.18-4.15,3.21-4.83c3.56-0.8,7.11-2.07,10.35-3.75
			c4.07-2.12,4.75-5.64,2.61-9.93c-0.85-1.69-1.62-3.42-1.61-6.01c4.02,1.8,8.04,3.6,12.47,5.59c0.79-4.95-0.71-7.22-6.45-6.95
			c0.57-3.05,1.12-5.89,1.6-8.75c0.11-0.64,0.03-1.33-0.07-1.98c-1-6.46-0.96-6.29,5.7-7.82c2.5-0.57,5.03-1.84,7.02-3.45
			c0.71-0.57,0.4-3.38-0.36-4.61c-1.31-2.13-3.33-3.83-5.88-6.62c3.77-1.05,6.22-1.74,7.92-2.21c3.43-2.97-3.39-8.94,4.13-10.23
			c1.22-4.39-8.49-5.82-3.87-10.94c3.47,1.34,6.63,2.56,9.79,3.78c0.51-0.54,1.03-1.07,1.54-1.6c-7.7-4.55-3.94-11.7-5.8-17.57
			c0.4-0.2,0.81-0.39,1.21-0.59c0.73,0.9,1.3,2.26,2.24,2.59c1.6,0.56,3.43,0.48,5.17,0.67c0-1.44,0.45-3.08-0.07-4.29
			c-1.63-3.77-3.63-7.39-5.48-11.06c0.5-0.35,0.99-0.7,1.49-1.05c1.31,0.89,2.63,1.79,4.67,3.18c1.05-5.9,1.8-11.55,3.16-17.06
			c0.46-1.88,2.45-3.38,3.74-5.05c1.12,1.22,2.59,2.28,3.3,3.71c1.82,3.66,2.49,7.42-0.07,11.21c-0.51,0.76-0.53,2.43-0.03,3.21
			c1.92,2.98,2.03,2.9-1.81,4.71c0.23,0.51,0.48,1.02,0.7,1.54c0.24,0.55,0.46,1.11,0.7,1.69c1.91-0.95,3.5-1.79,5.14-2.52
			c0.57-0.26,1.26-0.26,3.46-0.67c-1.62,2.41-2.61,3.82-3.52,5.28c-1.73,2.78-3.82,5.44-4.97,8.45c-0.75,1.95-1.75,4.78,1.85,6.19
			c0.82,0.32,0.69,3.05,1.09,5.13c1.86,0,4.46,0,8.75,0c-3.23,5.13-5.87,9.32-8.58,13.62c3.05,3.82,5.98,7.71,4.11,13.95
			c-0.79,2.65,1.95,6.35,3.07,9.58c0.53,1.52,1.01,3.04,1.75,5.27c3.01,0.3,3.05,2.56,1.67,5.78c-1.49,3.47-2.51,7.01-7.13,7.75
			c-1.11,0.18-2.18,2.09-2.79,3.42c-0.88,1.91-1.34,4.02-1.84,5.61c3.64,1.63,7.28,3.27,11.23,5.05c-0.06,0.88-0.16,2.31-0.29,4.24
			c3.2-0.65,6.18-1.26,9.62-1.96c-1.19-2.42-2.3-3.92-2.66-5.58c-0.94-4.32,0.05-7.8,4.79-9.45c1.29-0.45,2.28-1.72,3.41-2.62
			c-1.07-0.79-2.07-1.72-3.24-2.33c-2.64-1.37-3.27-5.65-0.25-7.33c5.83-3.25,2.02-4.62-0.65-6.55c-0.38-0.28-0.62-0.76-1.24-1.55
			c3.66-1.42,5.01-3.72,5.18-7.93c0.17-4.35,2.94-8.56,4.3-12.91c0.73-2.32,0.68-4.89,1.39-7.23c0.82-2.7,2.1-5.26,2.77-6.89
			c3.14,0.84,5.14,1.56,7.21,1.9c3.35,0.55,4.11,4.33,1.73,8.67c2.39,2.89,4.74,5.74,7.48,9.06c-1.82,4.13-3.74,8.51-5.92,13.47
			c1.9,0.5,4.06,1.06,6.98,1.83c-4.05,3.36,1.4,9.85-4.87,12.74c-0.21,0.1,0.93,3.07,1.4,4.72c0.76,2.61,5.08,4.64,1.19,8.1
			c-0.53,0.47-0.05,2.51,0.46,3.58c0.52,1.1,1.65,1.91,2.93,3.3c-2.26,1.6-4.16,2.96-5.34,3.8c0.44,1.7,1.22,3.33,1.2,4.96
			c-0.04,4.39,1.74,7.53,6.1,8.08c3.4,0.43,4.38,2.67,4.13,4.99c-0.15,1.43-2.38,2.82-3.93,3.88c-2.1,1.43-4.39,2.6-6.67,3.73
			c-1.52,0.76-3.17,1.26-5.12,2.02c0.15,2.53,0.32,5.21,4.87,3.9c0.97-0.28,2.61,1.19,3.7,2.13c0.73,0.63,1.03,1.75,2.23,3.93
			c0.64-3.18,0.94-4.72,1.12-5.6c2.92-0.75,5.4-1.39,8.46-2.18c0.17,0.43,0.64,1.66,1.25,3.26c1.47-0.41,2.98-0.83,3.93-1.1
			c-0.3-2.35-0.56-4.45-0.85-6.75c-1.65-0.4-3.81-0.92-6.06-1.46c0.92-2.16,1.66-3.88,2.41-5.61c1.63-0.08,3.25-0.15,5.65-0.26
			c-1.87-1.18-3.54-1.69-4.19-2.79c-0.62-1.05-0.17-2.72-0.19-4.11c4.21,0.2,2.86-2.99,3.33-5.24c0.69-3.29,1.76-6.5,2.58-9.76
			c0.2-0.8-0.02-1.69,0.09-2.52c0.37-2.85-2.28-5.99,1.43-8.71c0.83-0.61-0.55-4.58-1.32-6.87c-0.4-1.18-1.7-2.05-2.59-3.06
			c1.34-0.53,2.68-1.03,4.01-1.6c0.44-0.19,0.82-0.53,1.62-1.06c-0.84-1.69-1.67-3.37-2.37-4.78c1.09-1.63,2.73-3.02,2.97-4.62
			c0.8-5.48,0.54-11.16,1.78-16.51c1.3-5.6,0.3-10.9,0.25-16.36c-0.04-4.57,3.04-9.17,4.74-13.76c0.45,0.03,0.91,0.07,1.36,0.1
			c0,3.29-0.35,6.64,0.08,9.87c0.64,4.73,2.2,9.34,2.7,14.07c0.36,3.41-0.11,6.99-0.72,10.4c-0.34,1.91-1.72,3.63-2.74,5.66
			c3.33,2.57,3.33,2.57-2.04,10.18c2.03,0.96,4.12,1.76,5.99,2.91c1.26,0.78,2.21,2.08,3.3,3.14c-1.16,1.16-2.12,2.74-3.52,3.41
			c-4.34,2.07-5.88,5.26-3.84,9.48c1.07-0.66,2.11-1.29,3.09-1.9c0.22,0.07,0.47,0.08,0.52,0.18c0.78,1.49,1.54,3,2.46,4.8
			c-2.16,1.23-4.1,2.33-7.44,4.23c6.48-0.47,7.13,2.12,6.15,6.33c-0.35,1.49,0.86,3.35,1.35,5.04c0.21,0.73,0.57,1.44,0.63,2.18
			c0.24,2.89,0.4,5.78,0.58,8.67c0.58,0.3,1.17,0.61,1.75,0.91c-4.25,1.87-8.51,3.73-13.04,5.72c2.5,2.99,5.38,6.45,8.26,9.9
			c-4.14,4.01-4.52,4.21-9.58,4.86c4.25,6.18,15.24,4.16,15.92,14.06c0.45,0.03,0.91,0.06,1.36,0.09c0.65-1.52,1.63-3,1.87-4.59
			c0.33-2.1-0.04-4.29,0.11-6.42c0.2-2.8,0.26-5.2-2.85-6.84c-1.16-0.61-2.29-3.38-1.82-4.46c0.76-1.75,3.02-4.25,4.37-4.09
			c4.27,0.5,4.33-2.48,5.41-5.25c-0.89-0.17-1.72-0.32-2.94-0.55c0.66-1.16,1.24-2.18,1.98-3.48c-1.5-0.62-2.68-1.11-4.95-2.05
			c1.46-1.77,2.65-4.43,3.86-4.45c4.52-0.06,4.16-2.72,3.96-5.62c-3.94-1.89-7.81-3.73-6.85-9.18c4.7,0.2,4.7,0.2,8.48-4.9
			c-0.97-1.14-1.96-2.32-2.26-2.67c1.76-5.16,5.36-10.15,4.31-13.8c-2.22-7.72,2.98-13.73,1.86-22.23c1.81,1.7,3.08,2.31,3.12,3.01
			c0.3,4.74,0.22,9.51,0.58,14.24c0.08,1.05,1.71,2.97,2.11,2.85c5.3-1.69,8.88,1.88,13.81,4.35c-0.74-3.3-1.34-6.04-1.67-7.53
			c-3.31-1.93-5.9-3.12-7.97-4.92c-0.43-0.37,1.13-3.02,1.63-4.27c-1.25-1.73-2.65-3.67-4.06-5.61c2.99-1.01,5.97-2.02,10.03-3.39
			c1.91-5.89-5.37-3.97-8.13-6.65c2.78-3.4,6.19-6.55,3.41-11.92c-0.63-1.21,1.9-4.11,3.07-6.18c1.04-1.82,2.22-3.55,3.66-5.82
			c0.84,0.23,2.18,0.6,4.17,1.14c-0.42-2-0.64-3.89-1.23-5.65c-0.39-1.15-1.27-2.14-2.02-3.15c-4.86-6.52,1.25-11.31,2.71-17.19
			c1.36,0.41,2.7,0.82,4.62,1.4c-0.52,4.34-1.03,8.54-1.49,12.74c-0.05,0.47-0.03,1.22,0.26,1.41c4.84,3.34,2.09,8.21,2.9,12.38
			c0.82,4.24,0.53,7.69-0.85,11.6c-0.92,2.6,3.16,6.5,8.06,7.16c-1.84-3.42-3.25-6.05-4.67-8.69c1.64-1.81,3.44-3.81,5.37-5.94
			c-5.5-2.19-5.56-5.6-0.25-11.09c-6-4.17-2.81-10.42-3.56-15.93c-0.23-1.67-1.46-3.23-1.6-4.89c-0.17-2.03-0.45-5.1,0.68-5.99
			c2.52-1.98,3.48-2.63,2.52-6.72c-1.37-5.79-0.58-12.64,6.12-17.42c0.98,2.38,1.9,4.62,2.82,6.87c0.07-0.07,0.13-0.13,0.2-0.2
			c0.92,1.66,1.8,3.35,2.78,4.98c3.26,5.4-0.96,11.1,1.29,17.8c2.14-1.21,4.19-2.37,6.67-3.78c3.3,1.75,1.46,8.02,0.3,13.16
			c-1.64,7.26-9.24,4.6-11.17,9.09c1.51,0.72,2.87,1.37,3.98,1.9c3.28-2.54,7.98-6.18,12.69-9.83c0.58,0.47,1.17,0.95,1.75,1.42
			c-1.23,3.15-2.46,6.31-3.72,9.56c1.49,0,3.26,0,5.02,0c0.28,0.4,0.57,0.8,0.85,1.2c-2.54,1.84-5.33,5.48-7.57,5.17
			c-6.08-0.86-7.93,3.37-11.21,6.53c2.91,0.29,5.46,0.24,7.79,0.92c1.04,0.3,1.65,2.08,2.46,3.19c-1.07,0.58-2.1,1.32-3.24,1.71
			c-1.39,0.47-3.01,0.38-4.29,1.01c-1.43,0.71-2.6,1.96-3.89,2.97c2.34,1.21,4.6,2.68,7.07,3.49c0.9,0.3,2.31-0.96,3.69-1.6
			c1.08,1.86,2.05,3.53,3.16,5.44c-2.69,3.03-5.28,5.86-2.88,10.62c1.72,3.44-0.69,5.41-4.83,4.79c-2.43-0.36-4.92-0.39-8.11-0.63
			c1.3,6.94,12.6,7.93,6.61,16.77c0.53,0.13,1.05,0.25,1.58,0.38c2.51-1.95,5.01-3.89,7.79-6.05c3.91,1.82,4.81,5.61,3.01,9.02
			c-1.01,1.9-4.63,2.42-7.36,2.72c-1.91,2.33-3.83,4.66-5.74,6.98c0.1,0.38,0.19,0.76,0.29,1.14c1.25-0.5,2.5-1.04,3.76-1.5
			c2.08-0.76,4.22-2.1,6.26-1.98c1.44,0.09,3.29,1.98,3.91,3.49c0.31,0.78-1.8,2.42-2.63,3.79c-3.41,5.62-9.11,0.35-13.21,2.81
			c-1.38,0.83-3.05,1.17-4.57,2.33c8.12,1.57,16.95,1.5,18.61,12.6c-1.23,0.19-2.47,0.38-3.72,0.58c-0.3,5.24,0.28,5.52,9.38,4.44
			c-0.12,0.47-0.25,0.94-0.37,1.41c1.78,0.47,3.61,1.46,5.34,1.3c5.22-0.47,8.71,2.06,9.1,7.58c-12.81,0-25.58,0-38.36,0
			c0,0.19,0,0.38,0.01,0.56c5.57,1.62,11.14,3.24,17.12,4.98c-0.5,2.4-0.93,4.42-1.64,7.82c4.15-1.6,7.51-2.77,10.76-4.19
			c7.01-3.05,9.33-1.35,9.15,6.2c-6.52,1.2-12.88,2.54-19.31,3.41c-1.39,0.19-3.02-1.31-4.84-2.17
			c-8.49,1.09-11.99,7.26-13.47,15.93c3.57-1.96,6.67-3.61,9.72-5.36c4.21-2.41,5.78-1.78,7.62,3.03c1.96-0.4,3.89-0.79,5.82-1.18
			c0.13,0.47,0.27,0.94,0.4,1.42c-5.96,2.87-11.91,5.79-18.98,5.1c1.37,11,1.37,11,5.96,14.76c3.05-3.56,6.02-7.22,9.21-10.67
			c1.17-1.27,2.88-2.89,4.32-2.87c1.93,0.03,3.85,1.49,5.77,2.33c-1.27,1.27-2.35,2.87-3.86,3.74c-1.97,1.14-4.28,1.71-6.44,2.53
			c0.24,0.69,0.48,1.38,0.72,2.07c2.87-0.98,6.56-1.17,8.41-3.12c2.8-2.93,5.04-4.79,9.06-2.8c0.59,0.29,1.59-0.25,2.4-0.4
			c-0.22,1.42-0.26,2.9-0.69,4.26c-0.62,1.92-1.52,3.76-2.3,5.63c0.42,0.51,0.84,1.03,1.27,1.54c-6.03,0-12.06,0-17.98,0
			c0.98,4.76,1.79,8.74,2.71,13.21c1.57-1.09,4.42-2.01,4.72-3.46c0.86-4.18,3.93-4.62,7.1-5.98c1.77,3.32,3.35,6.28,4.92,9.25
			c0.43-0.11,0.85-0.22,1.28-0.33c0.2-3.35,0.39-6.7,0.65-11c1.82-0.39,4.45-0.9,7.06-1.53c0.9-0.22,1.74-0.71,2.6-1.08
			c-0.9-0.39-2.03-1.34-2.65-1.07c-3.23,1.39-3.31-1.03-4.3-2.93c-1.19-2.29-2.97-4.27-4.5-6.38c-0.52-1.04-1.04-2.08-1.76-3.53
			c0.82-0.86,1.9-1.99,3.25-3.41c-1.56-1.45-2.93-2.74-4.8-4.48c3.26-3.87,8.24-6.63,9.35-12.33c-3.14-2.42-2.23-5.98-1.23-9.63
			c0.65-2.35,0.88-4.84,1.71-7.12c0.62-1.7,1.91-3.16,2.89-4.72c0.42,0.26,0.85,0.52,1.27,0.78c0-4.78,0-9.57,0-14.72
			c-1.84,0-3.6,0-6.14,0c0.89-3.74,1.67-6.97,2.54-10.6c-1.06-0.25-2.24-0.24-3.06-0.79c-0.83-0.55-1.93-1.77-1.78-2.45
			c0.23-1.04,1.27-2.41,2.24-2.68c2.8-0.78,5.73-1.09,10.29-1.87c-2.86-2.44-4.96-3.96-6.68-5.82c-0.95-1.03-1.91-2.74-1.73-3.98
			c0.34-2.4,1.49-4.68,2.17-6.64c1.76-0.58,3.26-1.07,4.76-1.56c-0.91-1.28-1.8-2.58-2.74-3.84c-1.02-1.37-2.1-2.69-3.61-4.61
			c3.08-1.01,5.34-1.75,7.75-2.54c0.81-3.37-1.88-8.38,3.54-9.02c0.68-3.31,1.01-6.22,1.96-8.92c0.35-1,2.14-1.5,3.28-2.23
			c0.58,1.04,1.66,2.08,1.65,3.11c-0.05,3.05-0.89,6.28,4.49,6.42c-1.05,2.15-1.8,3.81-2.65,5.41c-1.07,2.02,1.98,8.17,4.14,8.91
			c1.39,0.48,2.51,1.73,4.18,2.94c0,0,0.9-0.58,3.2-2.05c-1.02,3.95-1.7,6.59-2.48,9.6c1.25,0.27,2.53,0.54,4.45,0.96
			c-1.27,1.6-2.23,2.8-3.18,4c3.62,2.93,3.62,2.93,9.14-5.56c-2.7-3.8-5.28-7.43-7.85-11.06c0.3-0.32,0.59-0.63,0.89-0.95
			c1.54,0.66,3.08,1.33,5.76,2.48c-0.48-2.23-0.54-4.89-1.2-5.04c-1.69-0.41-3.64,0.3-5.74,0.59c0.01-0.1,0.05-0.86,0.22-1.58
			c0.18-0.79,0.49-1.56,0.36-1.17c-1.39-2.19-3.15-3.74-2.94-4.95c0.28-1.64,1.85-3.3,3.27-4.44c1.21-0.97,3.23-0.9,4.47-1.85
			c1.85-1.41,1.88-2.6,0.28-5.14c-2.77-4.41-7.03-3.8-10.74-5.05c-3.71-1.25-3.8-2.71-1.36-5.66c6.47-7.83,14.52-8.84,23.71-6.47
			c0.98,0.25,2.41-0.91,3.53-1.58c1.44-0.86,2.78-1.88,4.19-2.85c-4.87-9.26-4.87-9.26-12.86-6.7c-4.28-3.1-2.62-6.37,0.6-10.38
			c-2.2-0.7-3.86-1.11-5.42-1.75c-1.29-0.53-3.61-1.7-3.52-1.96c1.81-5.7-4.21-11.48,0.3-17.3c0.69-0.89-1.1-3.98-2.13-5.85
			c-0.81-1.47-2.2-2.61-3.22-3.77c3.57-1.85,6.65-3.44,9.3-4.81c0.89,1.81,1.92,4.32,3.37,6.55c0.48,0.73,2.05,0.75,3.84,1.33
			c-1.58-3.57-3.76-6.25-3.55-8.73c0.18-2.13,3.09-4.04,4.79-6.04c0.54,0.1,1.08,0.2,1.62,0.29c-0.77-1.45-1.28-3.14-2.35-4.31
			c-3.87-4.25-3.91-4.39-0.39-5.9c1.71-2.86,3.38-4.54,3.7-6.44c0.68-4.08,0.72-8.28,0.9-12.43c0.08-1.86-0.17-3.73-0.16-5.59
			c0.01-2.8-0.03-5.62,0.21-8.4c0.42-4.75,3.37-7.09,8.28-6.83c0.19,2.79,0.4,5.56,0.6,8.28c1.32,0.17,2.44,0.31,3.97,0.51
			c-2.46,2.15-2.92,3.9-3.71,12.65c1.02,0.17,2.03,0.34,3.28,0.55c-1.18,2.46-2.17,4.51-3.19,6.63c2.21,1.35,5.13,3.14,8.5,5.19
			c-1.37,0.77-2.62,1.48-4.42,2.49c5.29,1.8,5.14,1.79,5.42-2.21c0.13-1.79,0.98-3.54,1.51-5.3c1.44,1.04,3.13,1.85,4.27,3.15
			c3.09,3.53,4.5,3.39,6.39-1.46c-4.77-1.69-9.53-3.3-14.21-5.11c-1.04-0.4-2.46-1.48-2.55-2.36c-0.16-1.66-0.02-3.94,1-4.97
			c1.14-1.16,3.39-1.22,6.59-2.2c-2.91-0.71-4.55-0.84-5.94-1.5c-2.86-1.35-2.39-4.65,0.19-6.03c-2.5-2.66-5.13-5.46-7.76-8.25
			c-1.29-4.8,1.22-7.91,4.83-10.34c0.84-0.57,2.27-0.26,3.44-0.36c0.05,4.58,4.4,3.2,7.22,5.67c-1.42-4.31-2.52-7.64-3.87-11.75
			c5.4,4.48,5.74-1.55,8.21-3.19c1.98-1.32,3.75-2.95,6.07-4.8c-0.47-2.08-1.81-4.28-5.37-2.07c-3.8,2.36-6.37,1.52-7.77-2.81
			c-0.19-0.58-0.43-1.14-0.63-1.67c-3.55,2.07-6.91,4.03-10.27,5.99c-0.39-0.53-0.78-1.07-1.17-1.6c1.9-2.73,3.8-5.46,5.92-8.5
			c-4.37-0.61-6.48-1.99-5.88-7.32c0.41-3.65-1.37-8.54-6.17-10.18c2.3-2.9,4.21-5.32,6.69-8.46c-2.21-0.28-4.09-0.52-6.14-0.77
			c-1.78-6.76,0.52-7.62,14.88-4.7c-4.12-6.69-8.01-13.02-12.54-20.38c3.21-0.62,5.14-0.99,7.89-1.52
			c-0.07-0.37,0.02-1.73-0.59-2.62c-1.23-1.78-3.87-3.18-4.07-4.95c-0.44-3.91-4.66-7.56-1.13-11.88c0.26-0.31-0.76-1.56-1.02-2.43
			c-0.36-1.2-0.55-2.44-0.82-3.67c1.36-0.25,2.72-0.69,4.08-0.68c1.53,0.01,3.06,0.42,4.59,0.66c0.12-0.65,0.25-1.29,0.37-1.93
			c-1.91-0.38-3.82-0.77-6.38-1.29c5.97-3.08,0.3-12,7.31-14.68c1.73,1.91,3.24,3.58,4.82,5.33c2.65-2.92,2.27-4.76,0.11-6.89
			c-2.47-2.44-4.64-5.24-6.59-8.12c-0.27-0.39,1.29-2.86,2.35-3.17c3.47-1.01,8.73,3.83,8.58,7.44c1.66,0.59,3.3,1.17,5,1.78
			c2.27-3.94,0.53-8.1-4.56-9.58c-3.84-1.11-5.33-3.21-4.39-7.17c0.27-1.13,0.03-2.48-0.29-3.64c-0.59-2.15-1.42-4.23-2.15-6.34
			c1.97,0.49,3.93,0.97,6.49,1.61c-1.92-2.5-3.89-4.73-5.46-7.22c-1-1.59-1.79-3.51-1.96-5.35c-0.31-3.38,0.97-4.96,4-2.52
			c3.97-3.39,3.89-7.67,3.23-12.2c-0.16-1.12,0.49-3.15,1.25-3.42c1.1-0.39,2.67,0.33,3.96,0.78c0.9,0.31,1.69,0.97,3.93,2.31
			c-1.44-3.53-2.14-5.88-3.29-7.98c-2.18-3.98-4.42-7.26,0.61-11.44c2.63-2.18,3.22-6.84,4.91-10.81c2.41-0.25,6.37,4.15,6.05,7.83
			c-0.46,5.35-0.46,5.35,3.02,9.01c-0.94,1.72-4.74,3.82,0.62,5.21c2.05,0.53,2.42,12.58,0.84,14.23c-0.88,0.92-1.63,1.95-2.45,2.92
			c1.43,0.52,2.85,1.12,4.31,1.52c0.74,0.2,1.59,0.04,2.84,0.04c-0.46,1.62-0.84,2.96-1.23,4.33c1.01,0.95,2.08,1.97,2.67,2.52
			c-0.91,6.09-1.74,11.63-2.66,17.74c0.65,0.27,2.11,0.88,3.76,1.58c-0.52,1.52-1.33,3.02-1.5,4.58c-0.2,1.9-0.37,4.1,3.01,3.25
			c1.09-0.27,2.57,0.76,3.81,1.33c1.45,0.66,2.83,1.47,4.78,2.49c0.11,0.67,0.36,2.09,0.62,3.66c6.35,1.08,3.38-5.92,6.63-7.28
			c-5.35-8.61-5.3-11.51,0.81-15.41c-2.15-1.71-4.3-3.16-6.11-4.94c-1.13-1.11-2.79-3.47-2.42-3.98c1.24-1.73,3.12-3.36,5.1-4.03
			c0.81-0.27,2.49,2.02,4.37,3.68c0.09-1.55,0.44-3.13,0.22-4.63c-0.54-3.61-1.32-7.19-2.06-10.77c-0.55-2.66-0.4-5.94-1.93-7.83
			c-2.78-3.43-0.56-5.19,1.84-8.79c1.1,2.22,1.97,3.97,2.84,5.72c0.59-0.36,1.19-0.72,1.78-1.08c-1.07-3.2-2.15-6.4-3.36-10.02
			c1.68,0.09,3.34,0.18,5,0.28c0.18-0.31,0.37-0.62,0.55-0.93c-1.27-0.87-2.91-1.49-3.72-2.67c-0.86-1.24-0.93-3.02-1.42-4.82
			c-4.44-1.34-5.01-1.96-5.38-6.71c1.35,0.74,2.39,1.32,4.25,2.35c-3.36-9.2,0.11-15.7,5.54-22.25c3.38-4.08,5.64-1.63,7.7,0.06
			c1.93,1.59,3.85,4.26,4.09,6.63c0.47,4.72,3.09,6.53,8.44,7.53c-2.8,4.04-5.16,7.46-7.85,11.36c2.08,0.5,3.58,0.87,5.71,1.38
			c-2.08,5.02-4.13,9.96-6.18,14.89c0.26,0.15,0.53,0.31,0.79,0.46c1.35-1.29,2.7-2.57,4.17-3.96c4.04,1.74,4.06,4.42,1.79,7.44
			c-1.39,1.85-3.28,2.6-0.19,5.41c1.71,1.55,0.31,6.52,0.31,10.5c-0.86,0.57-2.25,1.49-3.63,2.41c0.12,0.44,0.23,0.88,0.35,1.33
			c2.99-0.49,5.97-0.98,10.05-1.65c-3.73,2.95-4.8,5.4-2.79,9.13c2.52,4.66,4.49,9.66,6.24,14.67c0.58,1.67-0.15,3.86-0.53,5.77
			c-0.31,1.54-0.99,3-0.6,5.26c1.73-1.22,3.46-2.43,6.04-4.24c-1.33,3.96-0.24,7.73-4.69,9.45c-1.23,0.48-1.64,3.08-2.42,4.71
			c0.38,0.27,0.75,0.53,1.13,0.8c1.53-1.33,3.06-2.65,4.74-4.11c2.21,2.06,4.38,4.07,6.53,6.07c1.83-1.81,1.83-1.81-1-7.58
			c2.26,0.18,4.23,0.34,6.35,0.51c4.33-5.35,4.3-5.57-1.24-9.6c-0.92-0.67-1.95-1.32-2.59-2.21c-1.14-1.61-2.02-3.4-3.01-5.12
			c1.95-0.8,3.89-1.59,6.64-2.71c-0.34,2.55-0.52,3.93-0.78,5.93c1.17-0.48,2.45-0.62,2.62-1.13c1.22-3.72,1.3-8.19,3.48-11.13
			c3.55-4.8,4.29-8.25,0.07-13.12c-1.71-1.97-0.93-6.1-1.27-9.15c-1.51,0.25-3.11,0.52-4.71,0.79c-0.08-0.59-0.15-1.18-0.23-1.76
			c1.16-0.27,2.32-0.54,3.63-0.85c0.06-0.43,0.16-0.88,0.17-1.33c0.03-1.11-0.26-3.09,0.08-3.21c3.34-1.12,2.31-2.52,0.6-4.29
			c-0.53-0.54-0.73-1.51-0.85-2.31c-0.24-1.72-0.22-3.49-0.51-5.2c-0.39-2.29-0.97-4.54-1.74-8.06c2.95,1.44,4.48,2.18,5.4,2.63
			c1.76-2.66,2.94-6.2,5.31-7.41c1.53-0.78,4.8,1.86,7.38,3.02c0,3.08,0,6.52,0,10.23c1.92-0.16,3.7-0.3,6.92-0.56
			c-1.47,2.51-3.08,4.27-3.51,6.28c-0.42,1.98,0.36,4.21,1.58,6.25c-0.89,1.61-2.19,3.14-2.57,4.87c-0.33,1.53,0.36,3.28,0.61,5.04
			c7.64,1.08,8.31,3.46,5.8,10.79c2.35,0.34,4.9,0.7,8.66,1.24c-4.03,4.77-3.61,11.4-11.4,9.85c0.1,0.65,0.2,1.31,0.29,1.96
			c3.8,1.06,7.59,2.12,11.75,3.28c-0.89,3.28-1.89,6.98-2.97,10.97c2.7,0.39,6.41-3.08,6.47,2.18c2.39-0.52,4.42-0.96,6.03-1.3
			c-1.23,2.93-2.96,5.62-3.39,8.49c-0.48,3.24,0.22,6.65,0.42,10.11c1.72,0,3.44,0,5.67,0c-1.15,2.17-2.16,4.08-3.32,6.27
			c4.65-0.88,7.56-5.86,12.92-3.43c1.16,0.53,3.75-2.12,5.99-3.49c-1.34-1.21-2.49-2.24-3.83-3.44c1.49-0.19,2.71-0.35,4.39-0.57
			c-0.49-1.99-0.94-3.8-1.19-4.82c-3.09-0.74-5.62-1.32-8.13-1.99c-0.59-0.16-1.58-0.66-1.56-0.94c0.5-6.39-6.38-6.85-8.67-10.92
			c-0.71-1.26-1.34-2.82-1.23-4.17c0.05-0.65,1.87-1.23,2.95-1.73c1.52-0.7,3.09-1.29,4.63-1.93c1.2,0.65,2.54,1.38,4.24,2.3
			c0.67-3.76-4.23-7.44,3.23-9.73c-6.05-0.75-10.08-1.25-13.75-1.71c2.89-12.02-6.43-11.54-12.17-14.15
			c2.68-4.91,3.28-4.94,7.05-0.35c0.52-0.61,1.04-1.15,1.47-1.75c0.37-0.51,0.64-1.09,1.09-1.88c1.68,0.95,3.16,1.79,4.65,2.63
			c1.57-2.96,3-5.67,4.43-8.39c0.67-0.13,1.35-0.27,2.02-0.4c-3.59-5.26-7.53-10.31-10.65-15.83c-2.34-4.15-4.97-8.91-4.91-13.36
			c0.04-3.15,2.06-8.2,7.31-8.99c0.34-6.76,0.85-13.48,0.95-20.21c0.06-3.81-0.89-7.65-0.67-11.43c0.07-1.23,2.6-3.43,3.65-3.24
			c1.77,0.32,4.4,2.02,4.63,3.46c0.65,4.02-0.51,8.38,3.14,11.62c0.24,0.21,0.11,0.97,0,1.43c-1.65,6.99-0.75,9.02,5.28,11.77
			c0.22,3.17,0.44,6.33,0.69,9.9c1.08-0.69,2.16-1.38,4.07-2.6c0.46,9.93,0.89,19.05,1.32,28.16c0.39-0.13,0.78-0.26,1.17-0.38
			c-1.12,1.23-2.24,2.47-3.96,4.37c2.89,0,4.62,0,6.79,0c-0.78,2.7-1.56,5.39-2.34,8.09c0.45,0.23,0.89,0.46,1.34,0.68
			c1.46-1.56,2.92-3.12,4.38-4.68c0.42,0.22,0.83,0.43,1.25,0.65c-1.42,2.76-2.85,5.51-4.08,7.9c2.24,0.96,4.94,1.88,4.88,2.13
			c-0.63,2.61-1.7,5.1-2.61,7.53c0.44-0.11,1.58-0.38,2.67-0.64c0.8,2.79,1.63,5.27,2.18,7.82c0.24,1.09,0.09,2.37-0.25,3.45
			c-0.33,1.07-1.59,1.99-1.62,3c-0.09,3.47-0.55,7.25,0.71,10.24c0.44,1.05,5.46,0.17,8.79,0.17c-2.28-3.61-4.08-6.47-6.42-10.17
			c2.53,0,3.67,0,5.2,0c-1.48-4-2.82-7.63-4.34-11.7c1.56,0,3.73,0,5.91,0c-3.15-2.32-6.23-4.41-6.02-8.82
			c0.04-0.83-0.21-1.7-0.08-2.51c0.41-2.51,1.77-5.19,1.27-7.47c-1.5-6.8,0.79-13.46,0.06-20.14c-0.25-2.29-1.2-5.8-2.74-6.39
			c-3.99-1.52-3.93-4.46-4.04-7.5c-0.17-4.67-0.44-9.39,0.01-14.03c0.36-3.76,0.46-6.67-2.76-9.65c-3.63-3.36-1.28-12.22,4.38-16.85
			c3.96,3.96,9.53,7.35,11.6,12.22c2.08,4.91,4.87,7.46,9.03,9.82c0.67,0.38,0.19,3.69-0.48,5.34c-0.74,1.82-2.32,3.29-3.86,5.33
			c5.26,1.18,9.72,2.18,14.76,3.31c-0.91,4.26-1.84,8.62-2.78,13c-1.16,0.73-2.71,1.7-4.27,2.68c0.37,0.73,0.74,1.45,1.11,2.18
			c2.44-1.03,4.88-2.05,7.63-3.21c1.11,0.27,3.11,0.77,5.12,1.25c3.02,0.71,2.49,2.68,1.49,4.58c-1.99,3.79-4.13,7.49-5.86,11.58
			c5.18-2.74,10.24-5.51,12.5-11.56c0.41-1.08,1.69-1.84,2.56-2.74c0.37,1.11,0.88,2.19,1.08,3.32c0.43,2.51,0.69,5.04,1.07,7.91
			c-0.96,0.48-2.52,1.26-4.04,2.01c2.23,1.15,4.06,2.09,5.94,3.05c-5.61,4.3-10.24,7.85-14.87,11.4c0.3,0.43,0.61,0.87,0.91,1.3
			c2.87-1.84,5.74-3.67,9.66-6.19c-1.27,4.67-2.17,8-2.63,9.67c1.39,4.15,2.35,6.98,3.8,11.31c0-4.28,0-7.24,0-10.65
			c4.82-0.8,8.94,1.46,10.8,4.58c2.61,4.38,8,9.55,1.42,14.8c1.15,1.79,2.14,3.34,2.85,4.44c3.34-2.44,6.72-4.91,10.1-7.37
			c0.41,0.47,0.82,0.94,1.23,1.41c-0.88,0.98-1.8,1.93-2.61,2.96c-0.66,0.84-1.91,2.22-1.67,2.63c3.09,5.21-1.26,7.27-3.99,10.06
			c-0.65,0.66-1.02,1.59-1.81,2.88c3.54,0.01,6.39,0.88,7.99-3.21c0.59-1.5,3.45-2.11,5.44-3.22c2.39,7.13-1.03,14.14-7.05,16.26
			c-2.89,1.02-4.04,3.79-1.49,5.01c3.56,1.71,2.02,3.12,0.59,5.46c2.38,1.08,4.54,2.05,6.63,3c-1.8,3.16-3.87,3.49-9.58,1.54
			c-4.23-1.45-4.39-1.33-4.5,2.87c2.3,0.34,4.58,0.67,6.85,1c-0.03,0.58-0.05,1.16-0.08,1.74c-2.01,0.34-4.02,0.67-6.25,1.05
			c0.55,8.61,10.47,4.92,13.23,10.74c0.79-0.68,1.55-1,1.66-1.47c1.3-5.81,5.67-10.69,4.85-17.25c-0.2-1.6,1.78-3.71,3.22-5.12
			c0.4-0.39,2.41,1.16,3.75,1.39c1.62,0.27,3.31,0.06,5.52,0.06c0.04,0.12,0.22,0.87,0.57,1.51c0.3,0.55,0.82,0.98,1.38,1.63
			c1.31-1.12,2.52-2.16,3.77-3.23c-0.73-1-2.15-2.35-1.92-2.73c2.52-4.22-1.04-8.29-0.1-12.37c0.26-1.12,1.08-2.11,1.64-3.16
			c0.7,0.75,1.58,1.39,2.08,2.26c1.52,2.65,2.89,5.39,4.62,8.65c0.32-0.08,1.45-0.37,2.25-0.58c0.76,2.81,1.53,5.66,2.29,8.51
			c0.46,0.12,0.91,0.24,1.37,0.36c2.02-4.04,4.12-2.71,7.16-1.58c4.66,1.72,9.91,2.91,14.78,2.55c2.61-0.19,4.95-4.08,6.71-7.27
			c-2.51,0.25-5.02,0.51-8,0.81c0.64-2.1,1.1-3.64,1.53-5.05c-2.87-1.18-5.72-2.36-8.57-3.54c0.2-0.74,0.39-1.48,0.59-2.22
			c3.25,0,6.5,0,10.18,0c-1.01-2.19-2.37-5.15-3.8-8.27c-6.68,1.55-6.46-0.82-5.21-9.66c-1.25,1.97-1.93,3.22-2.78,4.34
			c-1.04,1.37-1.37,4.87-4.32,1.59c-0.23-0.26-2.09,0.96-3.76,1.75c-0.93-5.95,1.27-10.67,5.4-14.9c-0.43-0.3-0.86-0.61-1.29-0.91
			c-4.06,1.53-8.03,3.39-12.21,4.46c-2.34,0.6-5.01-0.11-7.61-0.24c2.15-4.46,3.83-7.95,5.67-11.76c2.48-0.56,5.61-1,8.49-2.07
			c0.93-0.35,1.26-2.35,1.88-3.65c-3.12-0.54-5.84-0.48-8.03-1.53c-2.06-0.98-3.57-3.13-5.92-5.31c-0.42,0.09-1.86,0.42-3.77,0.84
			c0.61-3.75-7.01-4.58-3.06-8.91c1.45-1.6,4.98-4.9,8.23,0.18c0.5-1.71,0.77-2.63,1.21-4.14c5,0.22,10.19,0.45,15.57,0.69
			c-0.84-2.06-1.65-4.07-3.03-7.47c2.98,1.34,4.43,1.99,5.87,2.63c3.72-3.21,5.34-3.16,7.97,1.36c3.35,5.76,8.43,6.62,14.58,6.59
			c-2.26-3.42-2.46-3.49-12.3-4.23c2.85-3.31,5.14-5.98,7.76-9.04c-1.37-0.31-2.51-0.57-4.06-0.92c0.3-1.35,0.59-2.71,0.91-4.15
			c-0.43-0.23-0.87-0.68-1.27-0.64c-5.05,0.53-11.25-2.55-14.28,4.51c-0.17,0.4-1.32,0.78-1.75,0.59c-3.27-1.46-6.54-2.95-9.65-4.72
			c-0.52-0.3-0.56-2.1-0.25-3.01c0.45-1.34,1.41-2.52,2.6-4.52c-3.18,0.31-5.55,0.54-8.45,0.83c0.6-1.93,1.11-3.55,1.36-4.33
			c-3.81-3.01-7.61-5.89-11.21-8.99c-0.58-0.5-0.49-2.09-0.25-3.06c0.08-0.31,1.73-0.51,2.54-0.29c2.59,0.69,5.11,1.59,8.56,2.7
			c-0.05-0.14,0.35,0.99,0.75,2.14c0.54-0.22,0.79-0.32,1.04-0.42c-0.97-2.31-1.88-4.65-2.92-6.93c-0.5-1.09-1.88-2.12-1.79-3.08
			c0.4-4.33-0.13-8.29-2.28-12.19c-0.49-0.88,0.93-2.81,1.33-3.89c-1.73-2.06-4.13-4.21-5.62-6.87c-1.74-3.1-5.32-5.24-4.73-9.72
			c0.49-3.7,0.1-7.51,0.1-11.27c0.55-0.1,1.1-0.21,1.65-0.31c2.12,3.28,3.96,6.83,6.52,9.73c1.05,1.19,3.7,1.41,5.56,1.29
			c1.36-0.09,2.64-1.45,4.56-2.61c0.84,3.99,1.5,7.16,2.37,11.31c3.27-3.17,6.16-5.98,9.05-8.78c-0.15-0.15-0.3-0.3-0.45-0.46
			c0.15-0.06,0.33-0.2,0.45-0.17c8.5,2.17,13.5-2.45,11.03-11.23c-1.1-3.93-1.61-6.65,1.2-9.78c0.96-1.06,0.94-3,1.59-5.36
			c-5.99,1.76-8.24-0.68-7.85-5.73c-2.27,1.72-4.35,3.3-6.44,4.87c-0.58-0.47-1.16-0.94-1.75-1.41c1.55-2.88,3.11-5.75,5.11-9.44
			c-7.18,2.27-9.62-7.89-17.96-4.03c-0.47-6.97-0.9-13.4-1.33-19.83c0.55-0.18,1.1-0.35,1.65-0.53c0.87,0.57,1.69,1.26,2.63,1.68
			c1.75,0.78,3.51,1.64,5.37,2.04c2.33,0.5,4.75,0.58,7.58,0.89c3.67-1.06,7.93-2.3,11.34-3.29c2.02,1.85,3.95,4.53,4.81,4.22
			c2.69-0.96,5.19-2.82,7.35-4.79c1.66-1.51,2.69-3.71,4-5.61c0.5,0.19,0.99,0.39,1.49,0.58c0,1.48-0.01,2.97,0,4.45
			c0.01,1.73-0.25,3.54,0.23,5.13c0.15,0.48,3.06,0.91,3.52,0.36c1.24-1.48,1.98-3.45,2.63-5.33c0.22-0.63-0.33-1.61-0.68-2.35
			c-1.35-2.82-1.75-6.02,1.72-6.81c2.36-0.53,5.3,1.01,7.83,2.01c0.83,0.33,1.16,1.88,1.83,3.06c3.81-1.82,5.74,0.08,7.21,3.36
			c1.56,3.49,4.38,2.71,6.62,1.07c3.64-2.66,6.85-2,8.5,2.23c0.28,0.73,0.46,1.51,0.73,2.45c2.86-0.34,6.33,0.22,2.75-4.13
			c-0.68-0.82-0.48-2.36-0.76-3.96c12.37,6.75,12.37,6.75,11.96,11.82c2.44-1.28,4.55-2.39,7.11-3.73c0.5,0.47,1.64,1.55,3.15,2.98
			c0.7-1.83,1.24-3.25,2.33-6.09c0.64,2.83,0.98,4.33,1.44,6.37c4.48-5.08,5.25-10.37,3.93-15.23c-3.35-1.73-6.12-3.01-8.73-4.56
			c-2.43-1.45-3.71-0.87-4.15,1.83c-0.21,1.31-0.09,2.71-0.54,3.92c-0.34,0.93-1.52,2.37-2,2.26c-1.07-0.26-2.13-1.21-2.84-2.15
			c-1.18-1.55-2.08-3.31-3.72-4.86c-0.7-3.52,2.01-3.94,4.91-4.37c4.02-0.6,7.02-5.56,5.31-9.55c-0.54,1.14-0.94,1.91-1.27,2.69
			c-0.31,0.73-0.55,1.5-0.92,2.53c-1.94-1.09-3.63-2.04-5.33-2.99c2.33-3.21,4.39-6.04,6.46-8.88c-0.21-0.43-0.41-0.87-0.62-1.3
			c-2.8,0.34-5.6,0.68-8.4,1.02c-0.22,0.03-12.72,5.91-12.88,5.94c-0.32,0.07-0.65,0.02-1.7,0.02c0.12-2.64,0.24-5.28,0.36-7.91
			c-0.54-0.32-1.08-0.64-1.62-0.96c2.02,9.16-7.39,7.76-8.88,12.75c-1.96-3.35-3.68-6.31-5.31-9.11c-2.38,1.06-3.73,2.03-5.18,2.22
			c-2.43,0.32-3.87-0.38-2.68-3.43c2.11-5.44,1.98-5.49-3.56-5.73c-0.65-0.03-1.63,0.01-1.88-0.36c-1.98-3.05-3.83-6.19-6.21-10.12
			c2.51,0.15,3.89,0.23,5.65,0.33c0.16-0.68,0.41-1.76,0.72-3.05c-3.03-0.99-6-1.93-8.94-2.93c-0.43-0.15-0.92-0.51-1.13-0.91
			c-1.76-3.4-3.62-6.75-5.04-10.29c-0.36-0.89,0.58-2.5,1.26-3.56c0.52-0.82,1.57-1.3,3.25-2.59c-2.87-0.26-4.61-0.41-7.1-0.64
			c-0.6-2.46-1.29-5.3-1.98-8.15c0.41-0.21,0.81-0.43,1.22-0.64c1.02,0.74,2.03,1.48,3.01,2.2c3.07-4.01,7.18-3.07,10.11,2.53
			c5.96-2.55,0.02-7.59,2.67-11.11c4.72,1.62,9.67,3.33,14.48,4.98c1.41-2.59,3.2-5.86,5.56-10.18c2.12,3.73,4.8,5.62,0.97,8.26
			c-0.43,0.3,0.25,3.48,1.26,4.37c2.64,2.32,1.94,3.58-1.96,5.08c3.67,1.12,6.31,2.44,9.02,2.6c2.69,0.16,5.47-0.76,8.16-1.39
			c2.55-0.6,6.13,2.15,7.92-3.22c-3.21-0.23-6.08-0.43-8.95-0.63c-0.35-0.31-0.7-0.61-1.05-0.92c1.44-0.92,2.88-1.83,4.32-2.75
			l-0.02,0.07c1.71-0.64,3.41-1.27,5.01-1.87c0-2.11,0-4.12,0-6.43c-1.47-0.26-2.89-0.51-4.63-0.81c0.39-3.62,0.14-5.42-4.95-4.07
			c-4.73,1.25-10.17-0.2-15.3-0.34c-1.95-0.05-3.91,0.24-6.95,0.45c0.8-2.45,1.54-4.73,2.49-7.64c-2.49-0.12-4.98-0.25-7.6-0.38
			c-2.05-4.46-2.05-4.46,1.38-13.21c1.92-0.15,3.87-0.31,6.14-0.49c-0.84-7.29-7.42-5.63-11.08-6.52c-3.81-0.93-8.4,1.4-12.82,2.33
			c-0.08-1.64-0.16-3.29-0.24-4.9c-7-3.29-8.84-6.53-7.06-12.22c3.85,1.2,7.71,2.4,11.74,3.66c3.58-5.71,7.17-11.43,10.76-17.15
			c-0.58,0.05-1.16,0.1-1.74,0.16c-1.43-2.62-2.87-5.24-4.3-7.87c0.52-0.5,1.03-1.01,1.55-1.51c2,0.68,4,1.35,5.45,1.84
			c4.25-1.6,8.27-3.12,12.72-4.8c-0.57-3.1-2.2-5.2-6.77-4.96c-4.72,0.25-9.76,0.73-13.77-2.85c-0.81-0.73-1.32-1.79-1.26-3.34
			c0.92,0.42,1.84,0.85,3.93,1.81c-0.73-2.15-1.11-3.28-1.48-4.37c4.4-7.54,11.47-6.82,19.69-5.6c-0.9-1.16-1.39-2.39-2.28-2.84
			c-3.18-1.64-6.48-4.11-9.78-4.18c-2.97-0.07-6,2.6-9.6,4.34c-0.71-2.12-1.79-5.33-2.88-8.57c-4.72,2.24-9.73-0.18-10.36-5.06
			c-0.11-0.87,1.58-2.7,2.63-2.86c2.75-0.41,5.6-0.14,8.8-0.14c-0.36-1.41-0.91-2.38-0.74-3.2c0.28-1.31,1.03-2.53,1.59-3.78
			c0.89,0.77,1.97,1.41,2.64,2.34c1.89,2.65,2.49,6.73,7.63,5.91c0.37-1.22,0.82-2.75,1.78-5.97c2.33,3.09,4.05,5.38,6.65,8.83
			c-0.2-2.94-0.29-4.41-0.45-6.84c1.83,1.26,3.04,2.09,4.39,3.02c4.25-2.37,2.36-5.23,1.52-6.89c-3.3-0.31-5.5-0.52-7.69-0.72
			c-0.89-0.08-1.87-0.45-2.65-0.19c-5.39,1.81-10.15-0.98-11.28-7.42c-2.52,0.73-4.97,1.43-7.85,2.26c0-1.97,0-4.07,0-6.73
			c-1.14-0.68-2.66-1.58-4.29-2.54c0-2.84,0-5.8,0-9.06c2.16,0.34,4.05,0.63,7.59,1.19c-0.85-3.35-1.67-5.86-2.06-8.42
			c-0.22-1.42,0.26-2.95,0.43-4.42c0.91,0.59,1.78,1.23,2.73,1.75c0.93,0.51,2.42,1.54,2.81,1.24c4.08-3.14,8.04-1.95,12.13,0.79
			c0-2.92,0-5.02,0-7.49c-4.54,1.04-8.77,2.02-12.96,2.98c-0.47-4.56-0.92-8.84-1.38-13.25c2.31,0.16,5.57,1.41,6.98,0.3
			c4.16-3.27,7.79-4.36,12.43-1.16c0.6,0.41,2.73-1.38,4.59-2.4c-1.48-6.01-5.43-7.96-12.67-5.3c-1.26-4.25-1.21-4.35,5.35-8.43
			c-4.92-0.42-9.2-0.78-13.09-1.11c-0.98-3.87-1.86-7.33-2.96-11.7c6.61,2.44,12,4.43,17.4,6.42c0.29-0.41,0.58-0.82,0.87-1.23
			c-9.59-4.18-8.43-12.31-7.79-20.04c0.32-3.84,2.96-3.04,5.5-1.91c2.93,1.31,5.94,2.45,9.37,3.85c0.68-3.94,1.15-6.61,1.61-9.27
			c0.56-0.1,1.12-0.2,1.68-0.29c2.11,4.8,4.22,9.6,6.38,14.52c4.71-4.06,8.11,0.53,11.8,2.87c2.51-1.38,4.94-2.73,7.86-4.34
			c0,3.54-0.3,6.18,0.12,8.7c0.23,1.33,1.62,2.56,2.74,3.55c0.26,0.23,2.18-0.61,2.21-1.03c0.09-1.29-0.52-2.62-0.59-3.94
			c-0.12-2.11-0.03-4.24-0.03-6.95c8.52,4.22,9.31,6.29,5.83,11.88c1.58,1.79,3.13,3.55,4.68,5.31c-0.22,0.3-0.44,0.6-0.67,0.91
			c1.88,0.27,3.76,0.53,6.07,0.86c0.63-1.72,1.29-3.51,1.95-5.29c4.23,1.4,5.28,4.2,5.72,15.01c2.13,0,4.6-0.67,6.3,0.18
			c1.83,0.92,2.94,3.27,5.26,4.74c-0.41-1.52-1.06-3.03-1.15-4.58c-0.06-1.12,0.61-2.28,0.96-3.43c0.9,0.48,1.83,0.93,2.7,1.45
			c1.89,1.13,3.99,2.05,5.56,3.54c1.08,1.03,1.97,2.86,1.94,4.32c-0.04,1.99-1.04,3.96-1.59,5.82c3.82-0.43,7.16-0.89,10.5-1.15
			c3.08-0.24,3.75,1.16,2.65,4c-1.66,4.26-2.45,8.41,2.84,11.06c0.3,0.15,0,2.85-0.76,3.53c-1.69,1.51-3,2.75-0.72,4.61
			c2.43,1.99,2.08,3.99,0.11,5.86c-2.81,2.67-1.72,4.42,1,6.16c1.24,0.79,3.13,1.91,3.2,2.98c0.24,3.61,0.64,7.6-0.65,10.79
			c-1.16,2.87-4.47,4.86-7.11,7.52c0.75,1.36,2.14,3.86,3.74,6.75c1.3-2.68,2.7-5.57,4.11-8.46c0.61,0.15,1.22,0.29,1.83,0.44
			c-0.72,3.95-1.43,7.9-2.11,11.66c3.96-0.22,7.94-0.44,12.13-0.67c1.21-2.09,2.7-4.66,4.51-7.78c-2.04-4.32,2.9-11.74,10.44-12.42
			c-0.56,3.91-0.26,8.02-1.84,11.18c-2.1,4.23,0.57,5.07,2.95,6.71c2.93,2.02,4.3,0.45,5.38-2.11c0.18-0.42,0.54-0.76-0.47-0.98
			c-0.79-4.16-1.57-8.32-2.36-12.48c0.52-0.3,1.04-0.59,1.55-0.89c3.91,4.38,7.82,8.75,11.82,13.23c0.68-2.07,0.81-4.76,2.21-5.91
			c1.05-0.86,3.73,0.27,6.41,0.61c-1.25-2.9-1.03-6.3-4.84-8.37c-1.43-0.78-2.7-3.7-2.43-5.38c0.71-4.4,2.31-8.65,3.79-13.78
			c2.36,1.4,5.46,3.26,8.92,5.31c-0.29,2.1-0.62,4.45-1.07,7.62c2.73-0.73,4.7-1.46,6.72-1.7c0.93-0.11,2.34,0.48,2.85,1.23
			c0.34,0.49-0.28,2.13-0.94,2.71c-2.2,1.93-4.62,3.62-7.75,6.02c2.71,1.67,5.45,3.34,8.16,5.05c3.97,2.51,4.1,3.63,0.09,6.15
			c-3.28,2.06-6.94,3.51-10.34,5.4c-0.82,0.46-1.26,1.6-1.88,2.43c0.25,0.47,0.5,0.93,0.74,1.4c6.69-2.03,13.39-4.07,20.93-6.36
			c-0.85-2.32-2.88-5.23-2.6-7.89c0.29-2.68,2.88-5.11,5.01-8.51c1.85,0.85,4.25,1.95,7.92,3.65c-0.65-2.88-1.12-4.98-1.45-6.47
			c2.46-1.6,5.16-3.36,7.87-5.12c0,285.33,0,570.67,0,856c-220.67,0-441.33,0-662,0c-2.73-2.4-5.46-4.8-8.19-7.19
			c2.67-1.66,5.35-3.33,8.36-5.2c0.08-1.53,0.19-3.53,0.29-5.36c-2.92,0.36-5.48,0.67-8.48,1.04c0,2.65,0,6.16,0,9.68
			c-5.89-0.65-4.72,3.7-4.97,7.03c-19.67,0-39.33,0-59,0c3.4-4.69,0.8-8.66-0.9-12.21c-2.14,2.22-4.19,4.35-6.18,6.42
			c2.99,0.64,3.38,2.83,1.08,5.79c-199.33,0-398.67,0-598,0C1,1246.33,1,1153.67,1,1061z M1020.63,923.98
			c0.09-0.14,0.15-0.32,0.27-0.42c0.1-0.08,0.38-0.13,0.39-0.1c0.39,0.81,0.75,1.62,1.12,2.44c3.81-1.66,6.47-6.37,4.31-7.75
			c-3.45-2.2-1.13-4.15-1-6.27c0.07-1.2,0.01-2.4,0.01-3.61c-2.52,1.26-4.88,2.94-5.24,4.97c-0.61,3.48,0.02,7.17,0.13,10.75
			c-0.96-1.45-1.93-2.9-2.96-4.45c-1.77,0.83-3.31,1.55-5.58,2.61c2.94,2.24,5.15,3.92,6.86,5.22
			C1019.56,926.12,1020.09,925.05,1020.63,923.98z M1155.22,1167.83c-0.25-0.96-0.5-1.92-0.69-2.64c-3.14,1.66-5.8,3.08-9.43,5
			c4.61,1.14,7.64,1.22,9.83-2.07c2.3,4.22,5.86,3.69,9.74,2.83c4.25-0.94,8.58-1.48,13.85-2.35c-1.01-1.7-1.71-4.4-3.42-5.41
			c-3.35-1.99-7.26-3.05-10.1-4.16C1161.76,1161.93,1158.49,1164.88,1155.22,1167.83z M1104.61,955.12c0.43,0.15,0.85,0.3,1.28,0.46
			c-0.54,5.87-5.61-0.96-8.24,2.32c0.3,2.39,0.71,5.7,1.19,9.57c2.38-3.27,3.93-5.55,5.64-7.71c1.24-1.57,2.69-2.99,3.37-3.73
			c1.24,0.95,3.28,3.55,5.79,4.15c2.31,0.55,5.13-1.05,7.54-1.66c-0.14,1.93-0.93,4.18-0.22,4.86c1.2,1.15,3.37,1.24,5.09,1.88
			c2.17,0.81,4.29,1.73,6.43,2.6c1.65,0.67,3.26,1.49,4.98,1.9c0.35,0.08,1.69-1.76,1.51-2.05c-0.78-1.26-1.98-2.26-2.99-3.38
			c-0.73-0.8-1.41-1.64-2.11-2.46c0.26-0.26,0.52-0.51,0.78-0.77c2.59,1.62,5.18,3.23,8.55,5.34c0-3.54,0-6.3,0-9.07
			c-0.28,0.04-0.55,0.07-0.83,0.11c1.02-1.64,2.05-3.27,3.07-4.91c-0.44-0.44-0.88-0.87-1.33-1.31c-3.42,2.68-6.85,5.36-10.27,8.05
			c-0.46-0.42-0.91-0.85-1.37-1.27c1.76-2.83,3.52-5.65,5.29-8.48c-0.12-0.4-0.24-0.8-0.36-1.2c-1.66,0.52-3.35,0.98-4.99,1.58
			c-2.94,1.08-5.77,4.14-9.78-0.14c3-1.94,5.59-4.98,8.32-5.13c7.23-0.38,6.54-6.96,10.17-9.98c-0.24-0.34-0.49-0.67-0.73-1.01
			c-1.96,0.6-3.92,1.2-5.88,1.79c-1.97-3.99-5.4-5.94-9.62-5.74c-4.9,0.23-10.26,0.14-11.87,5.51c-3.06-0.31-5.41-0.56-7.51-0.77
			c-0.97-8.88,8.34-5.35,10.87-9.27c0.73,0.58,1.85,1.87,2.2,1.69c2-1.04,3.82-2.43,5.7-3.7c-0.23-0.49-0.46-0.97-0.69-1.46
			c-6.92,0.73-13.85,1.46-20.28,2.14c-0.7-1.42-1.12-3.42-1.85-3.55c-4.74-0.8-9.54-1.19-14.32-1.72c-0.02,0.47-0.05,0.94-0.07,1.41
			c3.28,1.16,6.56,2.32,9.83,3.48c-0.08,0.44-0.15,0.88-0.23,1.33c-4.12,0-8.24,0-13.1,0c1.72,5.9,3.21,10.98,5.06,17.31
			c0.82-2.07,1.16-2.77,1.38-3.52c0.2-0.68,0.26-1.41,0.45-2.48c2.06,2.6,2.06,2.6,1.5,11.84c4.29-2.94,4.9-2.57,7.56,2.17
			C1100.62,952.13,1102.87,953.48,1104.61,955.12z M1107.72,1002.43c0.36,0.3,0.72,0.61,1.07,0.91c1.62-0.89,3.25-1.78,4.82-2.64
			c0,2.86,0,5.52,0,8.21c1.87-0.42,3.56-0.81,5.49-1.25c-0.28-1.69-0.53-3.22-0.98-5.95c3.95,6.41,13.7,2.54,14.67,10.5
			c3.83,0.67,7.19,1.36,10.59,1.8c0.86,0.11,1.89-0.43,2.73-0.88c3-1.58,5.94-3.24,9.6-5.25c-0.58-0.49-1.85-2.16-3.52-2.82
			c-2.78-1.09-6.39-0.76-8.63-2.42c-3.94-2.93-8.45-6.01-7.61-13.29c-1.64,2.17-2.48,3.3-4.03,5.35c-0.36-3.12-0.37-5.18-0.9-7.1
			c-0.3-1.09-1.31-2.3-2.31-2.74c-0.56-0.25-2.23,0.76-2.58,1.56c-0.71,1.66-0.9,3.55-1.25,5.35c-0.38,1.95-0.22,4.22-1.21,5.76
			c-0.65,1.01-2.92,0.96-4.47,1.39c-0.08-1.16-0.38-2.36-0.19-3.47c0.59-3.3,1.38-6.56,2.25-10.54c-5.62,1.61-10.37,2.98-15.73,4.52
			C1110.69,993.23,1111.4,997.5,1107.72,1002.43z M593.21,1287.94c0.65,3.13,1.13,5.48,1.61,7.83c0.35-0.07,0.71-0.15,1.06-0.22
			c-0.1-1.11-0.21-2.22-0.34-3.61c1.62,0.34,2.77,0.88,3.86,0.78c5.71-0.57,5.11,1.73,3.26,5.79c-1.89,4.15-2.8,8.75-4.14,13.15
			c0.7,0.27,1.41,0.54,2.11,0.82c0.88-1.79,1.75-3.58,1.98-4.03c3.16,0.63,5.51,1.41,7.88,1.45c1.25,0.02,2.52-1.26,3.54-1.82
			c-2.94-1.66-5.16-2.91-7.38-4.16c0.09-0.58,0.17-1.16,0.26-1.74c3-1.3,6.01-2.59,9.81-4.23c-2.92-1.95-5.46-3.64-8.63-5.76
			c1.8-2.24,3.38-5.71,4.72-5.62c4.01,0.27,4.03-2.25,5.16-4.66c-3.02,0.62-5.62,1.16-8.2,1.69c0-4.33,0-8.3,0-13.1
			c-0.99,1.23-2.07,2.33-2.87,3.61c-1.15,1.85-2.01,3.87-3.16,5.72c-0.68,1.09-2.45,2.05-2.38,2.97
			C601.77,1288.4,598.09,1288.34,593.21,1287.94z M55.01,1051.41c2.16-4.87,10.63-1.16,8.99-9.43c3.08,0.19,5.71,0.62,8.29,0.41
			c1.3-0.11,2.5-1.37,3.75-2.11c-1.15-0.88-2.19-2.12-3.49-2.57c-2.63-0.91-5.4-1.4-9.2-2.32c2.13-1.86,3.27-2.85,3.4-2.97
			c0-2.95,0-4.99,0-7.3c-2.65-0.89-10.86,0.67-11.8,3.15c-1.96,5.15-3.92,10.43-4.73,15.82
			C49.94,1046.01,52.96,1048.43,55.01,1051.41z M1181.21,1094.4c0.14-0.45,0.28-0.89,0.42-1.34c-1.74-1.73-3.48-3.46-5.43-5.4
			c0.14-2.65,8.68-2.93,2.66-8.17c-1.49,0.54-3.09,1.12-5.51,2c0.91-2.68,1.54-4.51,2.25-6.6c-8.8,1.25-6.27,11.99-12.97,14.59
			c0.34-1.44,1.49-2.31,2.02-3.46c0.69-1.51,0.9-3.24,1.32-4.87c-0.83-0.18-2.1-0.8-2.41-0.48c-1.23,1.26-2.26,2.76-3.18,4.28
			c-1.87,3.09-3.62,6.26-5.6,9.72c1.05-0.07,3.24-0.79,5.01-0.21c3.88,1.27,9.58-2.42,11.68,4.13c0.21,0.66,2.06,1.14,3.1,1.06
			c0.55-0.04,1.58-1.64,1.4-2.24C1174.22,1091.57,1177.75,1093.08,1181.21,1094.4z M963.78,988.36c3.66,0.16,3.66,0.16,4.74,5.36
			c5.05-6.04,5.03-7.28,0.17-9.48c0.11-2.37,0.22-4.6,0.34-7.04c-3.65-0.49-8.18-0.08-5.24-5.75c0.13-0.25-0.32-0.91-0.64-1.26
			c-3.32-3.68-6.67-7.34-10.03-11.02c-2.13,2.32-3.36,3.67-5.04,5.51c6.06-0.14,5.91,2.25,4.84,6.41c-0.73,2.81,0.63,6.16,1.02,9.04
			c0.64-0.35,2.33-1.26,4.02-2.18c-0.39,1.97-0.78,3.94-1.39,6.99c2.24-1.53,4.03-2.75,5.5-3.76c0.79,1.05,1.69,2.25,2.8,3.72
			C964.77,985.22,964.29,986.74,963.78,988.36z M354.4,1144.9c3.5,0.46,7.26,1.06,11.04,1.42c2.55,0.24,5.53,0.99,7.61,0.01
			c3.83-1.82,7.61-2.99,11.82-3.24c4.9-0.29,9.77-0.91,14.62-1.38c0.33-1.6,0.62-3.01,1.16-5.65c-5.88,1.29-11.12,2.52-16.39,3.55
			c-1.32,0.26-2.83,0.15-4.13-0.23c-5.05-1.45-10.05-5.37-14.74,1.11c-1.26,1.73-3.86,1.71-4.13-1.73c-0.05-0.67-0.55-1.46-1.1-1.86
			c-0.29-0.21-1.41,0.1-1.63,0.48C357,1139.98,355.62,1142.65,354.4,1144.9z M1118.83,808.08c-3.2,2.1-4.17,6.81-1.84,9.12
			c3.83,3.82,7.8,7.52,11.91,11.03c2.08,1.78,4.34,2.36,5.96-1.05c1.08-2.29,2.73-4.32,4.34-6.81c-3.29,0.72-6.98,1.53-10.87,2.38
			c-0.91-6.31,5.51-2.55,7-6.14c-4.21-3-8.61-6.14-13.29-9.47c0.11,1.71,0.2,3.26,0.38,6.11
			C1120.8,810.92,1119.91,809.64,1118.83,808.08z M554.21,1278.57c4.29,1.2,8.58,2.39,13.27,3.7c0.52-0.46,1.61-1.25,2.45-2.24
			c1.46-1.72,4.29-4.31,3.84-5.22c-1.15-2.36-3.66-5.44-5.83-5.61c-4.06-0.3-7.86-5.92-12.44-0.78c-1.2,1.34-3.95,1.3-5.99,1.9
			c-0.08,0.54-0.16,1.08-0.24,1.63C555.63,1271.27,553.22,1275.96,554.21,1278.57z M866.98,915.77c2.39,0.51,4.38,0.66,6.15,1.37
			c3.02,1.21,5.89,2.78,9.34,4.44c0,0.04,0,1.3,0,2.55c0.5,0,1.01,0,1.51,0c-0.2-2.97-0.4-5.93-0.61-9.06
			c4.76,1.3,6.61,7.5,12.77,6.07c-3.59-3.68-7.29-6.64-9.89-10.37c-2.49-3.57-5.31-4.56-8.99-3.26c-3.47,1.22-6.74,2.99-10.28,4.6
			C866.98,913.02,866.98,914.32,866.98,915.77z M569.67,1290.55c-10.23-1.61-13.47-0.51-16.79,4.64c1.74,0.13,3.85,0.3,6.37,0.49
			c-2.58,4.46-4.39,7.58-6.19,10.71c0.32,0.23,0.63,0.47,0.95,0.7c1.21-0.56,2.42-1.12,5.14-2.39c-1.57,3.4-2.5,5.48-3.48,7.54
			c-1.57,3.3,0.16,4.3,2.95,4.78c0.94-2.21,1.23-4.95,2.69-5.93c5.26-3.51,5.77-6.99,1.17-11.3c-0.28-0.26-0.22-0.88-0.32-1.33
			c0.37,0.23,0.73,0.46,1.1,0.69C565.22,1296.5,567.2,1293.85,569.67,1290.55z M1124.78,869.79c-1.18-4.29-2.23-8.1-3.39-12.31
			c-5.49,4.65-10.11,8.57-15.11,12.81c0.52,1.43,1.33,3.63,2.3,6.31c1.55-1.34,2.5-2.72,3.77-3.15c2.21-0.75,4.93-1.97,5.59,2.18
			c0.23,1.46,1.35,2.78,2.07,4.16c2.28-1.26,6.5,0.45,6.47-4.29c-2.75-1.9-5.52-3.81-8.29-5.73c0.12-0.25,0.24-0.5,0.37-0.75
			C1120.15,869.21,1121.73,869.41,1124.78,869.79z M1320.29,960.04c3.51-0.21,6.75-0.74,5.2-5.03c-0.52-1.44-3-3.32-4.26-3.1
			c-2.54,0.44-5.71,1.58-7.06,3.51c-2.09,3.02-2.88,6.94-3.94,9.71c-4.39-2.18-8.15-4.36-12.17-5.84c-1.09-0.4-2.95,1.32-4.79,2.23
			c3.12,2.4,5.21,3.94,7.23,5.57c3.93,3.18,10.4,2.36,12.79-1.81c0.72-1.26,0.86-2.84,1.1-3.68c2.78,0.58,4.96,1.04,7.13,1.49
			C1321.14,962.19,1320.78,961.27,1320.29,960.04z M693.9,1336.59c3.66-0.19,12.61-9.36,13.5-13.21c2.62-1.24,4.81-2.27,7.84-3.71
			c-1.55-0.58-2.11-1-2.39-0.86c-5.63,2.81-12.46-0.78-17.89,3.36c-0.54,0.41-1.89-0.26-2.87-0.39c-0.84-0.11-1.85-0.48-2.47-0.15
			c-0.52,0.28-0.89,1.46-0.78,2.15c0.38,2.22,1.01,4.39,1.6,6.79c0.8-1.05,1.53-2.32,2.56-3.24c0.64-0.57,1.74-0.62,2.63-0.9
			c0.11,0.39,0.22,0.78,0.33,1.17c-1.05,0.82-2.1,1.64-3.16,2.47c0.48,0.14,0.96,0.27,1.43,0.41
			C694.14,1332.39,694.03,1334.3,693.9,1336.59z M387.68,1090.19c-0.02,0.35-0.04,0.69-0.05,1.04c-1.81,0.76-3.63,1.53-6.68,2.81
			c4.07,0.99,6.83,1.67,9.62,2.35c0.47-2.63,7.7-9.62,9.45-8.75c5.8,2.87,5.06-3.26,7.58-4.95c-6.28-0.67-12.69-3.75-18.32,1.94
			c-0.37,0.37-2.32-0.82-4.02-1.48c-1.02,1.7-2.23,3.73-3.52,5.88C384.26,1089.53,385.97,1089.86,387.68,1090.19z M1181.09,567.52
			c-2.18-2.58-4.08-4.84-6.01-7.11c-3.66,1.55-7.38,3.12-11.63,4.92c2.35,1.23,3.91,2.05,5.34,2.8c-1.48,3.34-2.84,6.39-4.3,9.71
			c3.41,0.91,5.92,1.85,8.5,2.15c1.16,0.13,2.86-0.73,3.6-1.69c0.7-0.91,1.08-2.89,0.55-3.8
			C1174.79,570.41,1175.97,568.33,1181.09,567.52z M895,947.14c4.43-3.49,1.48-6.05-0.31-9.26c-4.48-8.01-4.29-8.28-11.71-6.7
			c-2.1,0.45-3.96,2.03-5.03,2.61c0.7,1.71,1.03,3.07,1.77,4.15c0.68,0.99,1.69,1.91,2.77,2.41c0.72,0.33,1.8-0.12,2.72-0.22
			c0.03,1.02,0.09,2.03,0.06,3.05c-0.01,0.5-0.21,0.99-0.45,2.08c1.61-1.22,2.63-2,3.6-2.73C890.69,944.12,892.8,945.6,895,947.14z
			 M379.57,1030.26c-0.3-0.56-0.6-1.11-0.89-1.67c-2.29,0.42-4.67,0.59-6.86,1.31c-4.63,1.52-8.57,5.28-14.05,4.12
			c-0.84-0.18-1.96,0.36-2.79,0.85c-2.56,1.5-5,4.23-7.74,0.18c-0.12-0.18-1.33,0.38-1.97,0.57c2,6.22,6.98,5.06,11.45,5.59
			c5.29,0.63,9.87,0.36,12.59-5.11c0.26-0.52,1.24-0.68,1.86-1.03C373.97,1033.47,376.77,1031.86,379.57,1030.26z M307.79,938.96
			c-0.53-0.09-2.02-0.17-3.41-0.61c-3.21-1.02-8.47,2.31-7.34,5.17c2.21,5.58,5.77,10.54,10.9,15.29
			c-1.56-5.85-0.28-10.01,4.84-11.23C311.08,944.64,309.68,942.23,307.79,938.96z M948.84,919.06c-1.46-4.21-4.69-3.04-5.84-1.64
			c-2.88,3.51-6.9,2.44-10.3,3.61c-1.12,0.38-2.35,0.47-3.67,0.73c1.13,2.14,1.94,3.68,2.92,5.53c0.58-1.67,0.99-2.83,1.4-4.01
			c4.16,1.73,4.02,1.72,2.15,5.14c-1.83,3.34-3.28,6.89-4.89,10.35c0.47,0.23,0.93,0.46,1.4,0.69c1.04-0.76,2.2-1.4,3.08-2.31
			c1.98-2.05,4.99-4,5.47-6.42C941.61,925.45,942.8,920.84,948.84,919.06z M1106.7,854.5c-3.71,1.38-7.14,2.66-11.16,4.16
			c0-2.69,0-4.05,0-5.46c-6.12,2.39-7.24,10-3.18,15.33c2.98-0.94,5.61-1.72,8.2-2.62c1.57-0.55,4.05-0.96,4.41-2.02
			C1106.03,860.78,1106.23,857.38,1106.7,854.5z M899.78,958.41c-1.57-6.49-4.75-10.44-10.94-11.47c-2.47,4.86-4.82,9.48-7.14,14.03
			C888.15,960.06,893.96,959.23,899.78,958.41z M1118.26,753.02c2.92-1.91,4.64-3.03,6.35-4.15c-0.31-0.59-0.62-1.17-0.93-1.76
			c-3.52,0.76-7.04,1.53-10.28,2.23c-0.77-2.08-1.51-4.1-2.35-6.37c-9.16,4.33-0.5,9.47-1.77,13.36c2.25-0.13,5.88-0.84,6.1-0.27
			c2.36,6.24,4.65,2.02,8.03-0.07C1121.51,754.89,1120.09,754.07,1118.26,753.02z M1132.24,1067.3c0.57,0.2,1.13,0.4,1.7,0.61
			c1.78,2.8,3.7,5.52,5.31,8.41c2.24,4.04,4.93,5.07,8.78,2.61c-3.39-1.86-3.13-3.89-0.98-6.74c1.03-1.37,0.43-3.96,0.57-6
			c-0.52-0.09-1.03-0.18-1.55-0.28c-0.64,1.06-1.26,2.14-1.94,3.17c-0.64,0.98-1.36,1.91-2.27,3.18c-1.95-4.11,1.05-9.43-4.15-10.6
			C1136.38,1061.37,1134.09,1065.31,1132.24,1067.3z M1140.43,996.87c2.15,0.75,4.4,1.68,6.75,2.28c1.01,0.26,2.2-0.17,3.3-0.29
			c-0.52-0.9-0.85-2.04-1.61-2.64c-1.8-1.41-3.8-2.56-5.72-3.82c2.5-0.65,5.03-0.91,6.21,0.23c4.56,4.39,4.31-0.14,5.76-2.57
			c-1.92-0.27-3.38-0.47-5.01-0.69c0.65-1.34,1.08-2.22,1.85-3.79c-2.3,0.67-3.81,1.11-4.09,1.2c-3.44-1.4-5.94-2.42-9.29-3.79
			C1139.29,988.33,1139.82,992.32,1140.43,996.87z M976.05,907.86c-9.03,6.79-9.05,6.82-6.98,13.05c0.98-2.15,1.74-3.84,2.51-5.54
			c1.96,1.95,1.96,1.95-1.52,6.85c1.98,1.61,3.96,3.23,6.62,5.4c0.46-3.32,0.81-5.91,1.23-8.99c1.32,0,3.16,0,5.46,0
			c-1.1-2.26-1.94-3.99-2.73-5.6c-1.72-0.13-3.3-0.24-5.1-0.38C975.71,911.11,975.84,909.9,976.05,907.86z M1077.66,983.78
			c-5.78,0.2-8.4,7.35-14.02,3.51c-1.75,4.2-3.41,8.17-5.07,12.14c0.55,0.49,1.11,0.98,1.66,1.47c2.72-1.92,5.44-3.84,8.26-5.83
			c0.12,0.16,0.78,1.11,1.3,1.84c1.62-2.29,3.17-4.22,4.43-6.34C1075.52,988.39,1076.53,986.05,1077.66,983.78z M1084.96,1098.53
			c-0.17-2.73-0.72-4.5-0.29-5.99c1.66-5.76,1.78-5.73-4.06-5.89c-0.21-0.01-0.53-0.18-0.59-0.35c-0.66-1.96-1.28-3.94-1.92-5.95
			c-6.03,2.86-6.59,4.09-4.22,9.92c2.76-0.18,5.46-0.35,8.16-0.52c0.05,0.38,0.11,0.77,0.16,1.15c-2.15,1.14-4.3,2.28-6.44,3.42
			c0.01,0.45,0.02,0.9,0.03,1.35C1078.72,1096.58,1081.64,1097.5,1084.96,1098.53z M1043.6,993.24c-0.15-0.23-0.29-0.46-0.44-0.69
			c-0.97,0.71-2.84,1.6-2.74,2.1c0.36,1.77,0.94,4.04,2.25,4.96c2.74,1.92,6.82,1.23,7.79,6.4c0.76,4.08,5.37,3.84,8.97-0.66
			c-2.61-0.76-4.9-1.43-7.28-2.13c1.47-2.73,2.74-5.08,4.82-8.95c-4.09,1.17-6.93,1.99-9.3,2.66c-0.36-6-4.12,0.57-5.42-1.68
			C1042.64,994.66,1043.12,993.95,1043.6,993.24z M1155.63,963.57c-4.07,1.94-7.86,4.32-6.22,8.16c0.94,2.19,5.53,3.48,8.62,3.78
			c1.29,0.13,2.94-3.36,4.42-5.21c-0.34-0.3-0.69-0.6-1.03-0.91c2.02-0.51,4.04-1.02,6.3-1.6c-0.47-1.1-1.06-2.71-1.16-2.68
			c-3.83,1.17-7.61,2.48-11.36,3.77C1155.29,967.78,1155.43,966.04,1155.63,963.57z M395.14,1288.18c2.2-4.13,3.99-7.49,5.91-11.1
			c-3.37-0.84-6.37-1.59-9.73-2.43c0,3.02,0,5.62,0,8.22c-0.52,0.44-1.05,0.88-1.57,1.32c-0.33-1.09-0.67-2.19-1.05-3.43
			c-1.23,1.3-2.24,2.37-2.82,2.99c0.64,1.87,1.13,3.33,1.51,4.44C390.08,1288.18,392.82,1288.18,395.14,1288.18z M951.71,946.7
			c-2.42-3.39-4.5-6.57-6.9-9.46c-0.63-0.76-2.48-1.19-3.42-0.84c-0.83,0.31-1.16,1.93-2.04,3.57c1.94-0.21,2.88-0.31,3.64-0.4
			c-1.62,2.59-3.18,5.08-4.74,7.57c0.37,0.27,0.74,0.55,1.11,0.82c1.3-0.44,2.61-0.89,5.35-1.82c-2.58,2.3-4.04,3.59-5.49,4.88
			c0.34,0.55,0.68,1.1,1.01,1.65C943.91,950.76,947.57,948.85,951.71,946.7z M348.13,984.17c2.11,1.25,3.3,1.95,4.65,2.74
			c-1.96,2.62-3.75,5.01-5.91,7.89c2.82,0,4.88,0,7.13,0c-0.22-5.65,3.04-8.23,6.98-9.01c-1.43-2.91-2.75-5.59-4.6-9.35
			C353.93,978.73,351.24,981.26,348.13,984.17z M1137.2,771.53c0.81,2.39,1.23,4.38,2.13,6.11c0.84,1.62,2.18,2.97,2.58,3.49
			c3.7-4.2,6.62-7.52,9.53-10.82C1145.76,766.54,1142.72,766.82,1137.2,771.53z M1058.06,1079.74c0.87,5.83,6.36,0.78,8.2,3.47
			c0,1.36,0,2.6,0,4.06c1.96-2.27,3.71-4.3,5.63-6.53c-1.19-2.26-1.97-6.02-4.14-7.19c-1.96-1.06-5.45,0.7-8.26,1.22
			c0.03,0.54,0.05,1.08,0.08,1.63c1.71,0.48,3.42,0.95,5.13,1.43c0.05,0.29,0.1,0.57,0.14,0.86
			C1062.62,1079.03,1060.4,1079.37,1058.06,1079.74z M1175.06,1149.59c-0.6-1.02-0.85-2.03-1.47-2.38
			c-1.72-0.96-4.67-2.75-5.21-2.22c-1.9,1.84-3.36,4.39-4.17,6.93c-0.27,0.85,1.73,3.36,2.97,3.59c3.79,0.7,7.72,0.66,11.6,0.9
			c0.07-0.59,0.14-1.17,0.21-1.76c-2.42-0.6-4.83-1.2-7.69-1.9C1172.64,1151.62,1173.69,1150.74,1175.06,1149.59z M833.11,904.64
			c-0.38,0.25-0.76,0.5-1.15,0.75c0.63,4.38,1.27,8.75,1.84,12.67c2.6,0.67,4.64,1.2,6.04,1.56c1.1-1.74,2.12-3.37,3.73-5.92
			C840.41,910.96,836.76,907.8,833.11,904.64z M79.24,1091.56c1.48-1.07,3.44-3.38,4.36-3.02c6.41,2.49,10.66-1.76,15.41-4.37
			c0.86-0.47,1.32-1.67,1.96-2.53c-1.32-0.18-2.79-0.81-3.92-0.42c-1.08,0.37-1.81,1.78-2.64,2.68
			C86.04,1081,79.78,1084.23,79.24,1091.56z M1144.9,870.61c2.88,2.1,5.9,3.2,6.05,4.61c0.53,4.91,4.73,4.74,7.52,6.5
			c0.55,0.35,1.19,0.58,1.81,0.78c1.41,0.46,2.82,0.98,4.28,1.2c0.22,0.03,1.04-1.95,0.95-2.01c-1.21-0.77-2.47-1.57-3.83-1.98
			c-5.28-1.57-8.56-6.64-7.1-11.81C1151.53,868.75,1148.75,869.53,1144.9,870.61z M594.28,1297.23c-6.59-1.42-6.98-1.08-7.31,4.5
			c-0.4,6.77-0.95,13.53-1.42,20.14c1.82-1.29,4.04-2.87,6.47-4.59C586.91,1310.26,588.89,1303.76,594.28,1297.23z M1189.67,634.82
			c0.97-5.83,1.91-6.27,8.35-4.28c0.25-0.35,0.49-0.7,0.74-1.05c-1.77-1.04-3.54-2.08-5.5-3.24c0.34-0.79,0.76-1.8,1.34-3.14
			c-2.05-0.86-3.96-1.65-5.84-2.44C1184.09,630.67,1184.32,634.13,1189.67,634.82z M287.35,1001.47c3.65,0.67,6.98,8.17,11.28,1.06
			c0.2-0.33,1.5,0.11,2.27,0.02c1.63-0.19,3.26-0.48,5.89-0.89c-4.6-2.3-8.17-4.08-10.99-5.48
			C292.54,998.22,289.94,999.85,287.35,1001.47z M1149.1,456.05c-3.07,2.31-5.55,4.18-8.04,6.05c0.05,0.5,0.1,1,0.16,1.5
			c1.68,0,3.36,0,4.68,0c0.58,1.67,0.91,3.61,1.91,5.09c0.58,0.85,3.13,1.55,3.32,1.28c1.81-2.55,3.3-5.32,5.18-8.55
			c-3.19,0-5.05,0-6.96,0C1149.26,459.49,1149.19,458.05,1149.1,456.05z M1038.56,985.45c3.81,0,5.7-0.25,7.5,0.05
			c3.25,0.54,6.42,1.77,9.67,1.98c1.37,0.09,2.85-1.69,4.28-2.62c-1.12-1.09-2.1-2.92-3.37-3.14c-3.52-0.61-7.23-1.06-10.73-0.57
			C1043.64,981.48,1041.62,983.58,1038.56,985.45z M1022.73,868.93c-0.85,3.44-8.24,2.33-5.32,8.89c1.48,3.33,0.26,7.86,0.26,12.85
			C1024.58,883.56,1023.31,876.22,1022.73,868.93z M1196.66,712.61c7.89-1.79,9.66-7.11,12.62-12.12c-3.55,0-6.56,0-10.65,0
			C1198.06,703.96,1197.43,707.87,1196.66,712.61z M917.15,1064.14c1.53-3.13,2.84-5.84,4.16-8.55c-0.3-0.33-0.6-0.66-0.9-0.99
			c-2.87,1.01-5.74,2.01-8.99,3.15c1.05-1.6,1.89-2.87,2.73-4.13c-0.15-0.45-0.3-0.9-0.45-1.35c-1.8,0.33-3.63,0.57-5.36,1.13
			c-0.15,0.05,0.35,2.13,0.58,3.45c-0.58,0.34-1.64,0.97-3.29,1.95C910.23,1060.93,913.37,1062.39,917.15,1064.14z M1086.83,1115.69
			c-1.41-4.95-3.04-9.02-9.06-5.4c-0.26,0.16-0.63,0.14-0.94,0.24c-1.28,0.45-2.55,0.92-3.82,1.39c1.18,0.74,2.37,1.48,3.51,2.2
			c-0.13,1.3-0.29,2.83-0.59,5.88C1080.35,1118.25,1083.6,1116.96,1086.83,1115.69z M898.47,980.7c-0.64,0.09-1.29,0.18-1.93,0.27
			c1.15,3.86-8.05,4.62-3.29,8.96c4.73,0.51,8.44,0.92,12.5,1.36c0.51-2.03,0.98-3.96,1.78-7.15c-3.15,1.55-5.09,2.51-6.8,3.35
			C899.97,985.2,899.22,982.95,898.47,980.7z M1179.81,655.9c-1.12-0.85-2.53-1.92-4.05-3.07c-2.41,3.16-3.55,8.86-9.47,4.1
			c0,2.59,0,4.74,0,6.57C1173.29,665.33,1177.6,662.65,1179.81,655.9z M40.93,1089.61c0.08,0.42,0.17,0.83,0.25,1.25
			c8.19,1.46,16.39,2.92,24.58,4.39c0.12-0.43,0.25-0.86,0.37-1.29c-0.57-0.47-1.08-1.24-1.71-1.35c-2.39-0.41-5.7,0.27-7.04-1.07
			c-2.4-2.42-8.17,0.94-8.05-4.95c-0.97,0.03-2.06-0.21-2.9,0.14C44.54,1087.53,42.76,1088.63,40.93,1089.61z M1075.03,947.82
			c-9.15,7.5-9.15,7.5-8.22,11.4c1.74-1.4,3.35-2.69,4.96-3.99c0.19,0.2,0.38,0.4,0.57,0.6c-0.7,1.56-1.41,3.13-2.42,5.37
			c1.61,0.22,3.54,0.88,3.81,0.46C1076.46,957.47,1078.5,953.06,1075.03,947.82z M911.88,1078.73c3-0.84,4.71-1.32,7.21-2.02
			c-6.8-4.98-6.96-4.93-12.87,2.58c1.3,1.82,2.58,3.62,3.78,5.32c2.93,0,5.77,0,8.62,0
			C916.23,1082.52,913.98,1080.56,911.88,1078.73z M1121.96,890.72c3.93,3.14,7,5.75,10.27,8.09c0.81,0.58,2.56,0.73,3.31,0.23
			c0.69-0.46,1.19-2.7,0.78-3.07c-3-2.72-6-5.59-9.48-7.57C1123.42,886.45,1121.97,887.87,1121.96,890.72z M213.32,1019.33
			c1.51,1.07,2.83,2.21,4.33,3.01c2.08,1.11,4.24,2.48,6.47,2.71c1.05,0.11,3.56-2.82,3.32-3.29c-1.12-2.18-2.97-5.55-4.58-5.57
			C219.77,1016.15,216.66,1018.11,213.32,1019.33z M366.51,1099.71c2.19,1.88,3.68,3.17,4.77,4.1c2.85-0.45,5.97-0.95,8.95-1.43
			c-0.18-2.05-0.39-4.59-0.65-7.54C374.88,1096.6,370.69,1098.16,366.51,1099.71z M41.75,1073.64c-5.38,0.14-7.29,2.19-9.57,9.93
			C40.25,1085.05,42.67,1082.63,41.75,1073.64z M1127.87,1075.06c5.29,3.83,5.29,3.83,3.75,8.79c2.81-0.85,5.62-1.71,9.06-2.75
			c-3.79-4.22-6.69-7.45-10.05-11.18C1129.38,1072.23,1128.71,1073.48,1127.87,1075.06z M317.7,1233.98
			c-1.86,0.18-3.62,0.24-5.33,0.56c-0.95,0.18-2.62,0.91-2.58,1.19c0.19,1.34,0.48,3.13,1.42,3.8c3.14,2.21,6.57,4.01,10.37,6.26
			c0.55-0.76,1.38-1.9,2.81-3.87c-2.33,0.37-3.4,0.53-4.57,0.72C319.11,1239.71,318.42,1236.91,317.7,1233.98z M968.16,906.69
			c2.54-2.68,9.15,3.26,8.6-4.01c-0.17-2.17-4.27-6-6.08-5.73C963.67,897.98,970.16,903.47,968.16,906.69z M1091.86,785.72
			c-1.84,1.17-3.14,2.61-4.62,2.83c-4.84,0.74-5.37,1.32-2.78,5.37c1.21,1.9,3.19,3.31,4.82,4.95c0.56-0.17,1.12-0.35,1.68-0.52
			C1091.24,794.3,1091.53,790.26,1091.86,785.72z M888.67,1002.91c2.9-0.79,6.74-2.64,7.35-1.88c4.32,5.32,6.09-0.21,9.66-1.5
			c-1.73-0.73-2.81-1.66-3.63-1.47c-7.45,1.73-3.79-2.09-1.83-5.87c-4.45,3.04-8.09,5.35-11.47,7.99
			C888.17,1000.64,888.67,1002.48,888.67,1002.91z M1154.05,557.15c0.17-0.48,0.35-0.97,0.52-1.45c-4.01-1.25-7.98-2.63-12.05-3.62
			c-0.61-0.15-2.35,1.55-2.34,2.39c0.01,1.2,0.94,2.6,1.87,3.51c1.18,1.14,2.76,1.86,4.81,3.17c0.63-1.03,1.52-2.5,2.43-3.99
			C1150.87,557.15,1152.46,557.15,1154.05,557.15z M1187.25,766c1.71-4.01,2.88-6.74,4.14-9.7c-2.55-0.8-4.75-1.49-6.15-1.92
			c-1.7,2.39-2.92,4.1-4.75,6.67C1182.09,762.22,1184.51,763.99,1187.25,766z M798.55,975.51c-6.13,0-12.27,0-18.58,0
			C783.27,981.94,789.12,982.1,798.55,975.51z M965.25,1020.8c3.58-4.37,6.93-8.45,10.62-12.96c-2.45-0.66-3.94-1.06-4.43-1.19
			c-3.7,4.76-7.17,9.23-10.99,14.14C962.59,1020.8,963.97,1020.8,965.25,1020.8z M1156.53,996.66c2.51,3.37,8.1,4.48,11.08,1.34
			c1.22-1.28,1.16-3.78,1.68-5.72c-1.58,0.16-3.29,0-4.72,0.55C1161.78,993.91,1159.15,995.38,1156.53,996.66z M1311.23,524.84
			c-6.34-3.54-11.92-2.95-14.15,1.21C1300.17,529.19,1306.28,528.77,1311.23,524.84z M1050.67,935.63
			c-5.73,4.19-10.81,7.91-15.46,11.31c11.58,0.88,11.64,0.86,9.97-4.56c1.64-0.52,3.28-1.05,5.09-1.62
			C1050.38,939.33,1050.5,937.77,1050.67,935.63z M1153.36,1040.74c2.27,4.02,4.01,7.11,5.87,10.43c1.81-0.13,3.73-0.27,5.55-0.4
			c0-2.44,0-4.5,0-6.67C1159.96,1047.09,1158.14,1041.26,1153.36,1040.74z M911.13,1176.76c2.59-2.95,5.01-5.71,7.91-9.01
			c-1.42-1.07-3.07-2.44-4.9-3.52c-0.19-0.11-1.59,1.4-1.99,2.34c-0.12,0.29,1.21,1.2,1.91,1.85
			C908.07,1171.2,908.05,1171.26,911.13,1176.76z M1189.24,610.17c-3.17,0.49-5.88,0.91-10.3,1.6c2.57,2.29,4.14,3.69,6.02,5.37
			c-2.16,0.69-4.09,1.3-6.73,2.13C1184.51,622.19,1187.09,619.83,1189.24,610.17z M668.67,1262.42c4.54,5.54,8.95-1.62,13.29,0.93
			C677.82,1257.77,671.58,1257.52,668.67,1262.42z M1127.85,869.4c2.12,1.86,3.61,3.37,5.31,4.6c3.19,2.33,5.97,0.13,5.78-4.95
			C1135.36,869.81,1131.79,863.77,1127.85,869.4z M668.81,1231.34c-0.18,2.02-0.34,3.75-0.44,4.87c3.92,1.03,7.55,1.99,10.96,2.88
			C678.74,1234.36,674.41,1230.8,668.81,1231.34z M979.78,1047.41c-0.35-6.27-0.67-12.09-1-17.92c-0.68-0.05-1.37-0.1-2.05-0.15
			c-0.41,4.21-0.81,8.43-1.28,13.28C976.67,1043.97,978.35,1045.83,979.78,1047.41z M917.63,1108.55c2.67,0.19,4.37,0.31,6.49,0.46
			c-0.27-1.74-0.49-3.08-0.72-4.58c6.69-2.08,1.97-6.64,2.1-10.31c-1.23,1.21-2.3,2.52-2.93,4.01c-0.64,1.51-0.62,3.31-1.32,4.79
			C920.44,1104.68,919.17,1106.21,917.63,1108.55z M949.55,998.65c-0.8,1.92-1.56,3.76-2.32,5.6c0.43-0.16,0.86-0.32,1.29-0.48
			c1.57,2.28,3.15,4.56,4.69,6.79C956.98,1005.32,956.41,1003.14,949.55,998.65z M31.78,1133.73c-3.31-0.98-4.52-6.96-8.57-4.16
			c-1.55,1.07-1.97,3.77-2.9,5.73c0.42,0.36,0.85,0.73,1.27,1.09C24.98,1135.5,28.38,1134.61,31.78,1133.73z M1149.1,1138.55
			c6.13-4.07,6.13-4.07,4.98-7.09c-2.12,0.75-4.17,1.7-6.33,2.16c-2.19,0.47-4.47,0.47-6.72,0.68c-0.04,0.3-0.07,0.6-0.11,0.91
			C1143.36,1136.2,1145.79,1137.2,1149.1,1138.55z M328.95,1238.98c0.55-4.32,0.5-7.96-4.5-8.4c-0.92-0.08-2.82,1.42-2.86,2.25
			C321.41,1237.57,325.18,1238.09,328.95,1238.98z M676.81,1311.58c2.58,0,4.57,0,7.24,0c-0.49-3.84-3.99-5.17-6.6-6.33
			c-1.76-0.79-5.68-2.47-6.37,2.56c2.35,0,4.51,0,6.88,0C677.58,1309.05,677.22,1310.24,676.81,1311.58z M981.49,1105.33
			c0.1,0.61,0.19,1.22,0.29,1.83c2.28,0.75,4.55,1.51,7.33,2.43c0.44-3.64,0.77-6.34,1.3-10.71
			C986.63,1101.6,984.06,1103.46,981.49,1105.33z M1200.85,762.34c-2.21,2.62-7.24,1.01-7.22,5.99c0,0.69,3.38,2.32,4.63,1.88
			C1201.39,769.12,1204.11,767.06,1200.85,762.34z M1139.85,748.55c-10.87-6.75-10.87-6.75-15.09-5.7
			C1128.74,747.86,1133.49,749.4,1139.85,748.55z M936.31,1193.76c1.05-2.27,2.17-4.68,3.44-7.42c-2.66-0.25-4.08-0.17-5.32-0.6
			c-0.56-0.2-0.76-1.42-1.13-2.17c-0.22,1.01-0.25,2.11-0.71,2.99c-0.58,1.1-1.52,2.02-2.18,2.87
			C932.24,1190.77,933.88,1191.98,936.31,1193.76z M1106.45,790.74c-0.42-0.41-0.85-0.83-1.27-1.24c-2.54,1.01-5.21,1.81-7.53,3.19
			c-0.54,0.32,0.11,2.63,0.22,4.23c1.68-1.1,2.72-1.77,3.79-2.47c0.4,1.38,0.72,2.5,1.03,3.62c0.49,0.06,0.98,0.12,1.47,0.18
			C1104.93,795.74,1105.69,793.24,1106.45,790.74z M1174.45,598.37c-0.83,1.89-1.81,4.11-2.84,6.44c2.39-0.26,4.77-0.32,7.03-0.85
			c1.48-0.35,2.8-1.38,4.19-2.11c-1.47-0.89-2.87-1.95-4.44-2.62C1177.14,598.69,1175.68,598.62,1174.45,598.37z M1146.67,1174.23
			c-0.4-0.26-0.8-0.52-1.19-0.77c-0.7,3.47-8.56,0.3-6.18,6.09c3.48,1.08,6.04,1.89,8.66,2.7
			C1147.61,1180.13,1147.14,1177.18,1146.67,1174.23z M897.82,962.5c-2.12,0.39-5.78,1.07-9.55,1.77c0.34,1.52,0.58,2.66,0.54,2.44
			c5.51,0,10.3,0,15.65,0C902.53,965.49,900.71,964.33,897.82,962.5z M1142.02,660.64c-0.94-3.97-1.57-6.61-2.27-9.53
			c-2.34,0.95-4.82,1.95-8.46,3.42C1135.35,656.84,1138.34,658.55,1142.02,660.64z M660.06,1261.84c1.95-1.53,3.42-2.69,4.88-3.84
			c-0.53-0.6-1.07-1.2-1.6-1.8c-2.41,0.39-5.73-0.02-6.96,1.4c-1.13,1.29-0.01,4.55,0.14,7.45c1.65-0.22,3.45-0.47,5.68-0.77
			C661.03,1262.94,660.33,1262.14,660.06,1261.84z M1189.17,450.9c2.34-1.11,4.8-1.87,6.66-3.36c0.83-0.67,0.82-2.9,0.53-4.28
			c-0.19-0.92-1.56-1.59-2.4-2.37c-1,1.08-2.36,1.99-2.92,3.27C1190.16,446.15,1189.83,448.39,1189.17,450.9z M911.89,945.79
			c-8.88-2.12-9.6-1.99-10.96,2.18c1.1-0.62,1.83-1.03,1.93-1.09c1.95,1.45,3.75,2.8,5.55,4.14
			C909.51,949.37,910.61,947.71,911.89,945.79z M540.38,1270.35c1.36-2.06,2.99-4.07,4.03-6.35c0.45-0.99-0.01-2.72-0.63-3.75
			c-0.36-0.6-2.15-0.99-2.84-0.62C538.79,1260.78,538.67,1268.26,540.38,1270.35z M54.41,1053.37c-2.99,0.3-5.87,0.6-8.74,0.89
			c-0.06,0.52-0.12,1.04-0.18,1.56c3.96,1.53,7.92,3.06,12.8,4.95C56.54,1057.45,55.46,1055.38,54.41,1053.37z M1149.4,1079.36
			c8.53,1.58,9.43,0.83,8.21-6.29C1152.06,1071.64,1153.04,1077.88,1149.4,1079.36z M1108.33,985.27c0.64,0.38,1.28,0.76,1.92,1.13
			c2.18-1.88,4.36-3.77,7.62-6.58c-2.99-0.72-6.22-2.26-6.88-1.52C1109.44,980.04,1109.13,982.88,1108.33,985.27z M590.39,1292.67
			c-4.64-4.86-4.64-4.86-10.71,3.21C583.81,1294.64,586.87,1293.72,590.39,1292.67z M1120.9,798.69c1.6-4.03,2.48-6.25,3.36-8.48
			c-0.22-0.38-0.45-0.76-0.67-1.14c-2.5,1.04-5,2.08-7.5,3.12C1117.47,794.07,1118.86,795.95,1120.9,798.69z M1130.41,885.04
			c4.88,4.43,7.33-1.31,11.91-1.41C1135.62,879.97,1134.04,880.22,1130.41,885.04z M1195.09,690.06c6.3,1.09,10.06-2.66,8.86-8.74
			C1200.88,684.35,1198.37,686.82,1195.09,690.06z M391.05,1261.66c1.82,0.45,3.13,1.22,3.74,0.85c1.34-0.83,2.24-2.33,3.48-3.36
			c0.78-0.65,1.85-0.94,2.79-1.39c-0.45-0.81-0.89-2.3-1.36-2.31c-1.33-0.03-2.95,0.18-3.96,0.96
			C394.22,1257.56,393.11,1259.28,391.05,1261.66z M796.87,857.2c3.56,8.8,5.35,10.31,11.3,9.11
			C803.2,864.53,802.94,857.76,796.87,857.2z M944.01,925.04c0,0.56,0,1.12,0,1.68c1.09,0.23,2.22,0.36,3.27,0.72
			c0.71,0.25,1.93,0.93,1.87,1.23c-0.51,2.87-0.57,2.86,3.57,3.29c-0.79-2.86-0.88-5.86-2.41-7.64
			C949.55,923.43,946.2,924.73,944.01,925.04z M218.84,1033.2c-1.21-0.29-2.39-0.56-3.58-0.85c-0.41,2.15-0.74,3.9-1.1,5.81
			c1.92,1.48,3.85,2.98,6.17,4.77c0.9-2.07,1.49-3.43,2.16-4.97c-1.95-0.19-3.48-0.35-5.37-0.54
			C217.78,1035.79,218.27,1034.59,218.84,1033.2z M941.93,1052.23c-0.16-0.84-0.32-1.67-0.48-2.51c-2.17,0-4.71-0.68-6.37,0.24
			c-1.09,0.61-0.91,3.51-1.3,5.39c0.49,0.24,0.97,0.48,1.46,0.72C937.47,1054.79,939.7,1053.51,941.93,1052.23z M524.23,1265.07
			c-0.01,0.55-0.01,1.09-0.02,1.64c2.05,0.88,4.09,1.75,6.05,2.59c1.67-1.88,3.11-3.5,4.55-5.12c-0.1-0.4-0.21-0.8-0.31-1.2
			C531.08,1263.68,527.66,1264.38,524.23,1265.07z M1226.32,488.4c-0.16,0.57-0.32,1.13-0.48,1.7c4.22,0.56,8.43,1.12,12.76,1.69
			C1237.42,486.73,1235.87,486.3,1226.32,488.4z M29.53,1100.51c-2.09,3.31-4.04,6.39-5.99,9.48
			C31.4,1107.55,33.15,1104.68,29.53,1100.51z M865.08,1046.67c-1.05,1.63-1.64,2.61-2.29,3.53c-0.51,0.73-1.1,1.41-1.66,2.11
			c0.86,0.23,1.89,0.88,2.54,0.61c2.6-1.05,5.09-2.4,7.62-3.63c-0.05-0.48-0.11-0.96-0.16-1.45
			C869.06,1047.45,867.01,1047.04,865.08,1046.67z M512.3,1272.68c2.07-3.18,3.34-5.12,4.53-6.95c-5.76-0.33-9.4,0.99-8.68,3.3
			C508.64,1270.62,511.02,1271.63,512.3,1272.68z M294.67,958.63c-0.44-0.13-0.88-0.25-1.32-0.38c-1.29,3.33-2.59,6.65-4.08,10.49
			C296.01,967.28,296.01,967.28,294.67,958.63z M1165.17,1144.1c-0.45-0.26-0.9-0.53-1.35-0.79c-6.34,3.67-6.92,4.82-4.45,10.53
			C1161.52,1150.24,1163.34,1147.17,1165.17,1144.1z M1076.26,1015.6c-6.51-2.91-9.21,1.27-11.88,5.49
			C1068.34,1019.26,1072.3,1017.43,1076.26,1015.6z M908.72,1155.99c1.85-3.53,3.49-6.66,5.29-10.09c-6.35-1.56-4.76,5.3-8.24,6.66
			C907.05,1154.07,907.99,1155.15,908.72,1155.99z M1153.01,941.15c0.48-0.29,0.96-0.58,1.44-0.87c-0.77-2.03-1.28-4.22-2.39-6.04
			c-0.63-1.03-2.25-1.47-3.43-2.17c-0.27,1.41-1.23,3.28-0.66,4.13C1149.25,938.11,1151.28,939.53,1153.01,941.15z M415.81,1316.82
			c1.53-1.91,3.04-3.05,3.32-4.43c0.16-0.75-2.49-2.88-2.63-2.77c-1.74,1.32-3.25,2.96-4.82,4.51
			C412.7,1314.79,413.72,1315.46,415.81,1316.82z M1166.02,1019.63c-1.53-1.68-2.66-3.38-4.23-4.47c-0.91-0.63-2.68-0.65-3.73-0.19
			c-0.57,0.25-0.87,2.93-0.56,3.09C1160.15,1019.41,1162.54,1022.98,1166.02,1019.63z M371.75,1088.43c4.62,3.25,9.8,1.11,9.39-6.56
			C377.93,1084.11,374.92,1086.22,371.75,1088.43z M1186.39,586.81c3.54,0,6.26,0.13,8.96-0.09c0.68-0.06,1.42-1.16,1.84-1.94
			c0.17-0.32-0.5-1.56-0.72-1.54C1193.19,583.53,1189.26,581.8,1186.39,586.81z M896.96,1034.36c0.2,0.63,0.39,1.27,0.59,1.9
			c2.02-0.6,4.04-1.21,6.23-1.86c0.41,0.78,0.93,1.75,1.44,2.72c0.39-0.03,0.78-0.06,1.17-0.08c0.26-1.86,0.51-3.72,0.96-6.97
			C903.1,1031.82,900.03,1033.09,896.96,1034.36z M1044.89,1033.08c-1.53-1.7-2.56-2.84-3.58-3.98c-1.81,1.73-6.08,1.39-4.61,6.39
			C1039.07,1034.79,1041.43,1034.09,1044.89,1033.08z M809.84,976.74c-0.23,0.64-0.47,1.27-0.7,1.91c2.47,1.29,4.85,2.8,7.44,3.78
			c1.27,0.48,4.09,0.3,4.21-0.13c0.9-3.32-1.68-1.2-2.77-1.63c-0.83-0.32-1.35-1.42-2.18-1.78
			C813.88,978.05,811.84,977.44,809.84,976.74z M1330.64,534.27c-2.54,4.66-2.07,7.07,0.79,8.36c0.73,0.33,2.33-1.27,3.53-1.98
			C1333.73,538.84,1332.5,537.02,1330.64,534.27z M178.8,1038.41c-0.17,0.51-0.33,1.02-0.5,1.53c3.27,0.68,3.91,6.68,8.91,4.14
			c-0.39-1.51-0.72-2.8-1.03-3.97C183.5,1039.49,181.15,1038.95,178.8,1038.41z M868.99,1004.33c-0.67-5.88-5.29-5.74-8.48-7.26
			c-0.41-0.19-1.7,1.47-2.41,2.12C861.87,1000.97,865.08,1002.48,868.99,1004.33z M977.98,985.4c0.42,3.11,0.82,6.1,1.31,9.76
			C984.55,988.58,984.25,986.98,977.98,985.4z M399.78,1235.5c0.38-0.36,0.76-0.71,1.14-1.07c-1.58-1.79-3.15-5.03-4.74-5.04
			c-2.76-0.02-3.45,2.73-2.33,5.36C395.99,1235.02,397.88,1235.26,399.78,1235.5z M378.02,1048.2c0.73,2.37,1.33,4.3,2.32,7.51
			c2.46-3.1,4.01-5.07,5.94-7.51C383.33,1048.2,381.11,1048.2,378.02,1048.2z M1079.79,1040.95c-2.32-3.24-1.46-7.77-7.04-7.79
			c0.51,2.75,0.97,5.3,1.48,8.08C1075.86,1041.15,1077.28,1041.08,1079.79,1040.95z M867.34,1036.36c0.71-3,1.28-5.38,1.91-8.04
			c-1.49,0-3.3,0-5.93,0C866.34,1030.63,861.61,1036.07,867.34,1036.36z M15.52,1084.72c-3.87,0.2-6.75,0.34-10.39,0.53
			C9.36,1090.29,11.64,1090.2,15.52,1084.72z M1015.41,878.46c-2.47,0.95-3.93,1.51-5.33,2.04c-0.16,1.85-0.3,3.46-0.44,5.06
			c1.39,0.41,2.69,0.8,4.17,1.24C1014.29,884.27,1014.74,881.93,1015.41,878.46z M235.08,1017.93c0-3.59,0-6.26,0-9.6
			C230.03,1012.56,229.97,1014.03,235.08,1017.93z M1305.56,1005.43c-0.65,2.27-1.26,3.93-1.54,5.64c-0.09,0.55,0.55,1.58,1.08,1.78
			c0.46,0.17,1.41-0.36,1.86-0.85c1.5-1.6,2.87-3.32,4.88-5.68C1310.02,1006.07,1308.07,1005.79,1305.56,1005.43z M890.05,990
			c-0.52-0.91-1.17-2.07-2.09-3.69c-2.7,2.88-5.01,5.33-7.32,7.79c0.38,0.45,0.76,0.9,1.14,1.36
			C884.43,993.71,887.07,991.96,890.05,990z M1140.95,638.97c0.22,0.5,0.43,0.99,0.65,1.49c5.85,1.86,6.32,2.58,7.08-5.12
			C1145.92,636.63,1143.43,637.8,1140.95,638.97z M1155.8,472.98c0.41,0.29,0.81,0.57,1.22,0.86c1.33-2.57,2.65-5.15,3.98-7.72
			c-0.44-0.21-0.88-0.42-1.31-0.63c-1.73,0.69-3.45,1.37-5.12,2.03C1154.99,469.43,1155.39,471.21,1155.8,472.98z M389.66,1236.3
			c0.27-0.85,0.54-1.69,0.8-2.54c-1.7-1.16-3.41-2.32-5.11-3.48c-0.16,1.71-0.97,3.79-0.27,5.02
			C385.6,1236.21,388.07,1236.01,389.66,1236.3z M328.76,1133.67c0.09-0.61,0.18-1.22,0.28-1.83c-3.12-2.15-6.25-4.2-10.04,1.4
			C322.65,1133.4,325.71,1133.53,328.76,1133.67z M366.9,1123.2c-1.81,3.73-0.69,5.61,2.19,5.51c2.05-0.07,4.07-1.39,6.1-2.16
			c-0.32-0.83-0.64-1.66-1-2.6c-1.34,1.15-2.38,2.06-3.35,2.89C369.44,1125.56,368.33,1124.52,366.9,1123.2z M1067.93,1030.17
			c0.36,0.42,0.72,0.84,1.07,1.26c2.1-1.91,4.2-3.83,6.59-6.01C1070.87,1023.51,1069,1024.9,1067.93,1030.17z M1080.89,801.9
			c-0.2,0.5-0.39,1-0.59,1.5c2.16,1.58,4.31,3.16,6.47,4.73c0.43-0.12,0.86-0.25,1.29-0.37c-0.29-1.68-0.05-4.28-1-4.85
			C1085.4,801.91,1082.99,802.17,1080.89,801.9z M355.69,1007.92c0.69,0.64,2.13,1.97,3.59,3.32c1.35-1.7,2.47-3.11,3.68-4.63
			c-0.76-1.49-1.53-3.01-1.99-3.92C359.24,1004.4,357.59,1006.04,355.69,1007.92z M512.34,1248.18c-2,5.16,4.09,3.88,4.98,7.64
			C518.6,1248.79,518.49,1248.65,512.34,1248.18z M921.31,1083.25c-0.69,1.81-1.28,3.36-1.87,4.92c2.43,0.24,4.86,0.47,7.29,0.71
			c0.01-0.39,0.02-0.77,0.04-1.15C925.18,1086.41,923.59,1085.11,921.31,1083.25z M1148.46,773.83c0.18,2.75,0.28,4.33,0.38,5.92
			c2.09-0.35,4.18-0.7,6.27-1.05c0.05-0.58,0.1-1.15,0.15-1.73C1153.42,776.12,1151.57,775.26,1148.46,773.83z M968.52,1027.09
			c0.8,0.12,2.3,0.77,3.34,0.34c0.75-0.31,1.55-2.36,1.2-3.12c-0.82-1.78-2.32-3.24-3.74-5.1
			C969,1022.34,968.79,1024.41,968.52,1027.09z M661.36,1186.86c2.09-6.42-3.41-5.29-5.57-8.17
			C653.86,1184.74,659.4,1183.73,661.36,1186.86z M1154.87,1126.01c-2.31,0.17-3.72-0.1-4.67,0.43c-1.25,0.69-2.24,1.95-3.11,3.14
			c-0.19,0.25,0.85,1.83,0.95,1.8c1.28-0.48,2.61-0.99,3.7-1.8C1152.69,1128.88,1153.35,1127.78,1154.87,1126.01z M407.09,1276.45
			c-6.51,2.57-7.4,4.84-4.89,9.44C403.63,1283.12,405.04,1280.4,407.09,1276.45z M366.33,1201c-0.36,1.71-0.7,3.31-1.17,5.52
			c1.87-0.14,3.81-0.28,5.8-0.43c-0.18-1.97-0.32-3.42-0.48-5.09C369.09,1201,367.64,1201,366.33,1201z M13.65,1091.42
			c1.11,3.13,1.89,5.33,2.67,7.53c1.61-0.57,3.23-1.15,4.98-1.77C18.66,1095.18,16.66,1093.68,13.65,1091.42z M349.28,974.57
			c2.26-2.41,3.73-3.99,5.2-5.56c-1.76-0.48-3.52-0.96-6.13-1.66C348.7,970.1,348.91,971.73,349.28,974.57z M200.43,963.55
			c-0.6-0.3-1.21-0.59-1.81-0.89c-1.57,3.02-3.14,6.04-4.71,9.07c0.77,0.38,1.53,0.75,2.3,1.12
			C197.62,969.75,199.03,966.65,200.43,963.55z M801.37,936.22c2.21,1.54,4.14,2.89,6.08,4.25c0.37-0.28,0.74-0.56,1.11-0.84
			c-1.36-2.39-2.73-4.77-4.4-7.7C803.03,933.66,802.26,934.85,801.37,936.22z M1216,797.72c0.74-0.5,1.48-1.01,2.22-1.51
			c-1.81-2.53-3.62-5.06-5.43-7.59c-0.67,0.45-1.34,0.91-2.01,1.36C1212.53,792.57,1214.26,795.14,1216,797.72z M1115.68,773.43
			c-0.21-0.51-0.41-1.02-0.62-1.53c-1.33,0.86-3.35,1.45-3.82,2.65c-0.58,1.46,0.14,3.43,0.3,5.18c0.44-0.06,0.89-0.11,1.33-0.17
			C1113.8,777.52,1114.74,775.47,1115.68,773.43z M31.16,1147.69c-3.23-1.37-5.08-2.15-6.55-2.78c-0.24,2.42-0.41,4.1-0.68,6.86
			C26.35,1150.4,28.03,1149.45,31.16,1147.69z M737.38,1261.28c0.57,0.27,1.14,0.54,1.71,0.81c1.66-1.48,3.31-2.96,5.6-4.99
			c-1.83-0.79-3.98-1.96-4.12-1.75C739.3,1257.18,738.39,1259.27,737.38,1261.28z M765.08,1121.73c0.41,0.36,0.82,0.72,1.23,1.08
			c1.82-1.58,3.64-3.16,5.87-5.09c-1.9-1.06-3.14-1.75-4.54-2.54C766.7,1117.57,765.89,1119.65,765.08,1121.73z M94.1,1100.5
			c-6.94-0.82-7.29-0.48-6.62,6.14C89.78,1104.51,91.6,1102.82,94.1,1100.5z M973.97,1086.42c2.96-6.2-2.9-4.1-3.73-6.32
			c-0.79,0.42-1.57,0.83-2.36,1.25C969.8,1082.95,971.72,1084.54,973.97,1086.42z M663.08,1295.04c-2.12-2.69-3.17-4.02-4.17-5.29
			c-1.46,1.62-2.68,2.96-3.89,4.31c0.05,0.46,0.1,0.91,0.15,1.37C657.44,1295.32,659.71,1295.21,663.08,1295.04z M1065,928.06
			c0.9,0.02,1.8,0.04,2.69,0.07c0.1-1.79,0.2-3.58,0.3-5.37c-1-0.04-2-0.09-2.99-0.13C1065,924.44,1065,926.25,1065,928.06z
			 M603.53,1316.3c1.8,3.54,3.12,6.13,4.44,8.71c0.5-0.21,1.01-0.43,1.51-0.64c0.23-1.58,0.47-3.15,0.66-4.46
			C608.1,1318.8,606.36,1317.85,603.53,1316.3z"/>
		<path d="M1166.61,620.51c-1.77-0.41-3.55-1.19-5.3-1.11c-1.62,0.07-3.19,1.07-5.52,1.94c3.51-6.17,5.93-7.06,13.8-5.73
			c-1.02,1.69-2,3.32-3,4.96C1166.59,620.58,1166.61,620.51,1166.61,620.51z"/>
	</g>
</g>
</svg>
